<svg width="12" height="11" viewBox="0 0 12 11" fill="none" xmlns="http://www.w3.org/2000/svg">
<g clip-path="url(#clip0_230_14)">
<path d="M3.14 10.63C2.85795 10.6274 2.58836 10.5135 2.38985 10.3131C2.19135 10.1127 2.07999 9.84205 2.08 9.55999V8.55999L2 8.47999L0.14 5.11999C0.00329825 4.87308 -0.0303162 4.58216 0.0464753 4.31058C0.123267 4.039 0.304244 3.80876 0.55 3.66999L6.93 0.129994C7.17842 -0.00718482 7.47085 -0.0410788 7.74406 0.0356449C8.01727 0.112369 8.24931 0.293544 8.39 0.539994L10.39 4.16999C10.3986 4.19937 10.3986 4.23061 10.39 4.25999V4.32999C10.6738 4.32999 10.9459 4.44272 11.1466 4.64339C11.3473 4.84405 11.46 5.11621 11.46 5.39999V9.54999C11.46 9.83377 11.3473 10.1059 11.1466 10.3066C10.9459 10.5073 10.6738 10.62 10.39 10.62L3.14 10.63ZM10.43 10.12C10.5795 10.12 10.7229 10.0613 10.8296 9.95659C10.9362 9.85185 10.9974 9.70943 11 9.55999V5.40999C10.9974 5.26056 10.9362 5.11813 10.8296 5.01339C10.7229 4.90865 10.5795 4.84997 10.43 4.84999H3.14C3.06562 4.84866 2.99173 4.86217 2.92263 4.88971C2.85352 4.91726 2.7906 4.9583 2.73754 5.01043C2.68448 5.06257 2.64233 5.12475 2.61356 5.19336C2.5848 5.26196 2.56999 5.3356 2.57 5.40999V9.55999C2.56999 9.63438 2.5848 9.70803 2.61356 9.77663C2.64233 9.84523 2.68448 9.90742 2.73754 9.95955C2.7906 10.0117 2.85352 10.0527 2.92263 10.0803C2.99173 10.1078 3.06562 10.1213 3.14 10.12H10.43ZM3.62 9.05999C3.5537 9.05999 3.49011 9.03365 3.44322 8.98677C3.39634 8.93988 3.37 8.8763 3.37 8.80999C3.37 8.74369 3.39634 8.6801 3.44322 8.63322C3.49011 8.58633 3.5537 8.55999 3.62 8.55999H10.08C10.1463 8.55999 10.2099 8.58633 10.2568 8.63322C10.3037 8.6801 10.33 8.74369 10.33 8.80999C10.33 8.8763 10.3037 8.93988 10.2568 8.98677C10.2099 9.03365 10.1463 9.05999 10.08 9.05999H3.62ZM3.62 7.90999C3.5537 7.90999 3.49011 7.88365 3.44322 7.83677C3.39634 7.78989 3.37 7.7263 3.37 7.65999C3.37 7.59369 3.39634 7.5301 3.44322 7.48322C3.49011 7.43633 3.5537 7.40999 3.62 7.40999H8.38C8.4463 7.40999 8.50989 7.43633 8.55678 7.48322C8.60366 7.5301 8.63 7.59369 8.63 7.65999C8.63 7.7263 8.60366 7.78989 8.55678 7.83677C8.50989 7.88365 8.4463 7.90999 8.38 7.90999H3.62ZM2.08 7.56999V6.56999L1.64 6.78999L2.08 7.56999ZM3.67 6.83999C3.63685 6.84084 3.60387 6.83509 3.57297 6.82307C3.54207 6.81106 3.51386 6.79301 3.49 6.76999C3.4547 6.74184 3.42429 6.70805 3.4 6.66999C3.36937 6.60407 3.35236 6.53264 3.35 6.45999V5.81999C3.3523 5.75053 3.36934 5.68236 3.4 5.61999C3.42108 5.57685 3.45189 5.53919 3.49 5.50999C3.54193 5.47104 3.60509 5.44999 3.67 5.44999H4.47C4.53772 5.45172 4.60357 5.47251 4.66 5.50999C4.6953 5.53953 4.72278 5.57731 4.74 5.61999C4.77528 5.68058 4.79262 5.74994 4.79 5.81999V6.47999C4.79239 6.5532 4.77513 6.62571 4.74 6.68999C4.71971 6.72796 4.69259 6.76186 4.66 6.78999C4.60714 6.8354 4.53969 6.86025 4.47 6.85999L3.67 6.83999ZM8.4 6.83999C8.29922 6.83999 8.20256 6.79996 8.1313 6.72869C8.06004 6.65743 8.02 6.56077 8.02 6.45999V5.81999C8.02946 5.72965 8.07097 5.64568 8.13702 5.58331C8.20306 5.52093 8.28926 5.48428 8.38 5.47999H9.89C9.98907 5.47996 10.0842 5.51862 10.1552 5.58773C10.2262 5.65685 10.2674 5.75095 10.27 5.84999V6.47999C10.27 6.58077 10.23 6.67743 10.1587 6.74869C10.0874 6.81996 9.99078 6.85999 9.89 6.85999L8.4 6.83999ZM4.29 6.32999V5.94999H3.86V6.32999H4.29ZM9.78 6.32999V5.94999H8.51V6.32999H9.78ZM1.39 6.32999L2.08 5.97999V5.40999C2.08482 5.26899 2.11532 5.13005 2.17 4.99999V4.93999L0.950002 5.57999L1.39 6.32999ZM0.740001 5.14999L8.2 1.21999L7.97 0.809994C7.89636 0.679453 7.77426 0.583168 7.63014 0.541993C7.48603 0.500817 7.3315 0.518062 7.2 0.589993L0.820001 4.12999C0.754385 4.16549 0.696523 4.21373 0.649812 4.2719C0.6031 4.33006 0.568482 4.39698 0.547988 4.4687C0.527494 4.54043 0.521537 4.61554 0.530469 4.6896C0.539401 4.76366 0.563042 4.83519 0.600001 4.89999L0.740001 5.14999ZM4.98 4.34999L8.85 2.47999L8.42 1.70999L3.31 4.38999L4.98 4.34999ZM9.93 4.34999L9.08 2.86999L6.08 4.33999L9.93 4.34999Z" fill="#FE624C"/>
</g>
<defs>
<clipPath id="clip0_230_14">
<rect width="11.5" height="10.62" fill="white"/>
</clipPath>
</defs>
</svg>
