<svg width="8" height="13" viewBox="0 0 8 13" fill="none" xmlns="http://www.w3.org/2000/svg">
<g clip-path="url(#clip0_244_128)">
<path d="M4.04001 12.51H3.97001H3.88C3.80988 12.4633 3.732 12.4294 3.65001 12.41C3.61906 12.4029 3.58981 12.3898 3.56397 12.3714C3.53813 12.3529 3.51621 12.3295 3.49947 12.3026C3.48272 12.2756 3.4715 12.2456 3.46645 12.2142C3.46139 12.1829 3.4626 12.1509 3.47001 12.12C3.48653 12.0567 3.52719 12.0024 3.58327 11.9688C3.63936 11.9351 3.7064 11.9248 3.77001 11.94C3.90593 11.9679 4.03504 12.0223 4.15001 12.1C4.20343 12.1366 4.24058 12.1924 4.25364 12.2559C4.26669 12.3193 4.25464 12.3853 4.22001 12.44C4.17069 12.4847 4.10659 12.5096 4.04001 12.51ZM2.04001 12.3H1.80001C1.7435 12.2885 1.69268 12.2578 1.65619 12.2132C1.61969 12.1685 1.59975 12.1127 1.59975 12.055C1.59975 11.9973 1.61969 11.9414 1.65619 11.8968C1.69268 11.8521 1.7435 11.8215 1.80001 11.81H2.80001C2.85652 11.8215 2.90733 11.8521 2.94382 11.8968C2.98032 11.9414 3.00026 11.9973 3.00026 12.055C3.00026 12.1127 2.98032 12.1685 2.94382 12.2132C2.90733 12.2578 2.85652 12.2885 2.80001 12.3H2.04001ZM0.820007 12.18C0.614477 12.14 0.429615 12.0289 0.297927 11.8661C0.16624 11.7033 0.0961573 11.4993 0.100005 11.29C0.095327 11.2703 0.095327 11.2497 0.100005 11.23C0.101123 11.1979 0.108939 11.1665 0.122939 11.1376C0.13694 11.1087 0.15682 11.0831 0.181304 11.0624C0.205789 11.0417 0.234337 11.0263 0.265113 11.0173C0.295889 11.0083 0.32821 11.0058 0.360008 11.01C0.391121 11.0112 0.421662 11.0188 0.449775 11.0321C0.477888 11.0455 0.502989 11.0645 0.523559 11.0879C0.544129 11.1112 0.559739 11.1385 0.569442 11.1681C0.579145 11.1977 0.582741 11.229 0.580009 11.26C0.580009 11.47 0.680012 11.59 0.950012 11.68C1.00405 11.6912 1.05258 11.7207 1.08742 11.7635C1.12226 11.8063 1.14127 11.8598 1.14127 11.915C1.14127 11.9702 1.12226 12.0237 1.08742 12.0665C1.05258 12.1093 1.00405 12.1388 0.950012 12.15L0.820007 12.18ZM5.02001 11.02H4.75001C4.69349 11.0085 4.64268 10.9779 4.60619 10.9332C4.56969 10.8885 4.54976 10.8327 4.54976 10.775C4.54976 10.7173 4.56969 10.6614 4.60619 10.6168C4.64268 10.5721 4.69349 10.5415 4.75001 10.53C5.05418 10.5563 5.36055 10.5394 5.66001 10.48C5.71781 10.4795 5.77398 10.4991 5.81898 10.5354C5.86397 10.5717 5.895 10.6224 5.90679 10.679C5.91858 10.7356 5.9104 10.7945 5.88364 10.8457C5.85687 10.897 5.81319 10.9373 5.76001 10.96C5.49891 11.002 5.23401 11.0154 4.97001 11L5.02001 11.02ZM3.81 10.92L2.81 10.8C2.75291 10.7835 2.70357 10.7472 2.67081 10.6976C2.63806 10.648 2.62403 10.5884 2.63126 10.5294C2.63848 10.4704 2.66647 10.416 2.71023 10.3757C2.75398 10.3355 2.81063 10.3122 2.87001 10.31L3.87001 10.44C3.93366 10.44 3.9947 10.4653 4.03971 10.5103C4.08472 10.5553 4.11001 10.6163 4.11001 10.68C4.11001 10.7436 4.08472 10.8047 4.03971 10.8497C3.9947 10.8947 3.93366 10.92 3.87001 10.92H3.81ZM0.910011 10.79C0.85597 10.7788 0.807444 10.7493 0.772605 10.7065C0.737767 10.6637 0.718742 10.6102 0.718742 10.555C0.718742 10.4998 0.737767 10.4463 0.772605 10.4035C0.807444 10.3607 0.85597 10.3312 0.910011 10.32C1.23575 10.2328 1.57346 10.1991 1.91001 10.22C1.96194 10.2458 2.0033 10.2888 2.02702 10.3417C2.05073 10.3946 2.05532 10.4541 2.04001 10.51C2.03872 10.5415 2.03123 10.5725 2.01797 10.6011C2.0047 10.6297 1.98592 10.6555 1.9627 10.6768C1.93948 10.6982 1.91228 10.7148 1.88264 10.7256C1.85301 10.7364 1.82153 10.7413 1.79001 10.74C1.49153 10.722 1.192 10.7456 0.900008 10.81L0.910011 10.79ZM6.49001 10.4C6.45721 10.4085 6.4228 10.4085 6.39001 10.4C6.33186 10.3755 6.28513 10.33 6.25916 10.2725C6.2332 10.215 6.22993 10.1498 6.25001 10.09C6.25576 10.0435 6.25576 9.99647 6.25001 9.94998C6.25001 9.82998 6.25001 9.69998 5.99001 9.53998C5.9644 9.5216 5.94266 9.49835 5.92604 9.47157C5.90942 9.44478 5.89823 9.41498 5.89313 9.38388C5.88802 9.35277 5.88909 9.32096 5.89628 9.29027C5.90346 9.25957 5.91662 9.23059 5.935 9.20499C5.95339 9.17938 5.97664 9.15764 6.00343 9.14102C6.03021 9.1244 6.06001 9.11321 6.09112 9.1081C6.12223 9.103 6.15404 9.10407 6.18473 9.11125C6.21542 9.11844 6.2444 9.1316 6.27001 9.14999C6.42202 9.23564 6.5462 9.36319 6.62776 9.51744C6.70932 9.67169 6.74481 9.84613 6.73001 10.02C6.72196 10.1025 6.70174 10.1834 6.67001 10.26C6.6472 10.2999 6.61339 10.3325 6.57262 10.3537C6.53184 10.375 6.48581 10.3841 6.44001 10.38L6.49001 10.4ZM5.26001 9.16999C4.96219 9.07795 4.65804 9.00777 4.35001 8.95999C4.29158 8.95784 4.23544 8.93678 4.19001 8.89999C2.38001 7.50999 0.840011 6.27999 0.840011 3.50999C0.840011 1.32999 2.04001 -0.0400129 4.20001 -0.0400129C4.67268 -0.0816167 5.14868 -0.0175857 5.59354 0.147441C6.03841 0.312468 6.44101 0.574358 6.77219 0.914154C7.10337 1.25395 7.35484 1.66314 7.50839 2.1121C7.66194 2.56106 7.71374 3.03855 7.66001 3.50999C7.66001 5.89999 6.25001 7.19999 4.91001 8.33999L4.74001 8.48999L5.00001 8.54999L5.31 8.62998C5.37181 8.65061 5.42313 8.69456 5.45302 8.75247C5.4829 8.81037 5.489 8.87765 5.47001 8.93999C5.45742 8.98685 5.43032 9.02854 5.3926 9.05907C5.35488 9.08961 5.30847 9.10743 5.26001 9.10998V9.16999ZM4.26001 8.37998L4.68001 8.02999C6.01001 6.88999 7.25001 5.72999 7.25001 3.56999C7.25001 1.62999 6.25001 0.499988 4.25001 0.499988C2.25001 0.499988 1.38 1.62999 1.38 3.56999C1.38 5.72999 2.38001 6.80999 3.78001 7.99999L4.26001 8.37998ZM3.04001 2.92998C3.00406 2.94027 2.96595 2.94027 2.93001 2.92998C2.87241 2.90003 2.82873 2.84884 2.8082 2.78725C2.78767 2.72567 2.79191 2.65851 2.82001 2.59999C2.89185 2.45221 2.99259 2.32032 3.11625 2.21212C3.23991 2.10391 3.384 2.02158 3.54001 1.96999C3.57021 1.96074 3.60194 1.95754 3.63338 1.96058C3.66482 1.96362 3.69536 1.97284 3.72323 1.9877C3.7511 2.00257 3.77576 2.02279 3.7958 2.0472C3.81584 2.07162 3.83087 2.09975 3.84001 2.12999C3.85951 2.19104 3.85481 2.25724 3.8269 2.31493C3.79898 2.37262 3.74998 2.41739 3.69001 2.43999C3.49878 2.50333 3.34051 2.64001 3.25001 2.81999C3.20897 2.85904 3.1563 2.88362 3.10001 2.88999L3.04001 2.92998Z" fill="#FE624C"/>
</g>
<defs>
<clipPath id="clip0_244_128">
<rect width="7.66" height="12.49" fill="white"/>
</clipPath>
</defs>
</svg>
