<svg width="12" height="11" viewBox="0 0 12 11" fill="none" xmlns="http://www.w3.org/2000/svg">
<g clip-path="url(#clip0_230_37)">
<path d="M1.45998 10.99C1.07276 10.99 0.701404 10.8362 0.427601 10.5624C0.153798 10.2886 -2.67861e-05 9.9172 -2.67861e-05 9.52999V3.32999C-0.00134579 3.13742 0.0354456 2.94649 0.108227 2.7682C0.181008 2.58991 0.288344 2.42778 0.424049 2.29114C0.559754 2.15451 0.721147 2.04607 0.898937 1.97207C1.07673 1.89808 1.2674 1.85998 1.45998 1.85999H2.08997C2.11005 1.83457 2.13833 1.8169 2.16998 1.80999L7.70998 0.0299879C7.77231 0.0109975 7.83959 0.0170928 7.8975 0.0469786C7.9554 0.0768643 7.99934 0.128178 8.01997 0.189988L8.59998 1.87999H8.99997C9.38984 1.87999 9.76374 2.03486 10.0394 2.31054C10.3151 2.58622 10.47 2.96012 10.47 3.34999V4.94999H11.04C11.2027 4.95261 11.3578 5.01909 11.4719 5.13508C11.586 5.25107 11.65 5.40727 11.65 5.56999V7.42999C11.65 7.59177 11.5857 7.74692 11.4713 7.86132C11.3569 7.97572 11.2018 8.03999 11.04 8.03999H10.47V9.54999C10.47 9.74256 10.4319 9.93323 10.3579 10.111C10.2839 10.2888 10.1755 10.4502 10.0388 10.5859C9.90219 10.7216 9.74005 10.829 9.56176 10.9017C9.38347 10.9745 9.19254 11.0113 8.99997 11.01L1.45998 10.99ZM9.01997 10.51C9.28519 10.51 9.53954 10.4046 9.72708 10.2171C9.91462 10.0296 10.02 9.7752 10.02 9.50999V8.01999H9.48997V8.45999C9.48997 8.49151 9.48377 8.52271 9.47171 8.55183C9.45965 8.58095 9.44197 8.60741 9.41968 8.62969C9.3974 8.65198 9.37094 8.66966 9.34182 8.68172C9.3127 8.69378 9.28149 8.69999 9.24997 8.69999C9.21846 8.69999 9.18725 8.69378 9.15813 8.68172C9.12901 8.66966 9.10255 8.65198 9.08027 8.62969C9.05798 8.60741 9.04031 8.58095 9.02824 8.55183C9.01618 8.52271 9.00998 8.49151 9.00998 8.45999V8.01999H7.26997C7.10819 8.01999 6.95304 7.95572 6.83864 7.84132C6.72424 7.72692 6.65998 7.57177 6.65998 7.40999V5.54999C6.65996 5.38727 6.7239 5.23107 6.83802 5.11508C6.95214 4.99909 7.10728 4.93261 7.26997 4.92999H8.98997V4.12999C8.98997 4.06633 9.01526 4.00529 9.06027 3.96028C9.10528 3.91527 9.16632 3.88999 9.22998 3.88999C9.29363 3.88999 9.35467 3.91527 9.39968 3.96028C9.44469 4.00529 9.46997 4.06633 9.46997 4.12999V4.92999H9.99997V3.32999C9.99997 3.06477 9.89462 2.81042 9.70708 2.62288C9.51954 2.43534 9.26519 2.32999 8.99997 2.32999H1.45998C1.19476 2.32999 0.940405 2.43534 0.752869 2.62288C0.565332 2.81042 0.459976 3.06477 0.459976 3.32999V9.52999C0.459976 9.7952 0.565332 10.0496 0.752869 10.2371C0.940405 10.4246 1.19476 10.53 1.45998 10.53L9.01997 10.51ZM2.56998 10.12C2.51346 10.1085 2.46265 10.0779 2.42616 10.0332C2.38966 9.98855 2.36972 9.93265 2.36972 9.87499C2.36972 9.81732 2.38966 9.76143 2.42616 9.71677C2.46265 9.67212 2.51346 9.64146 2.56998 9.62999H3.56998C3.60629 9.62261 3.64378 9.6234 3.67974 9.6323C3.71571 9.64119 3.74925 9.65797 3.77794 9.68142C3.80663 9.70487 3.82974 9.7344 3.84562 9.76787C3.86149 9.80135 3.86972 9.83794 3.86972 9.87499C3.86972 9.91204 3.86149 9.94863 3.84562 9.9821C3.82974 10.0156 3.80663 10.0451 3.77794 10.0686C3.74925 10.092 3.71571 10.1088 3.67974 10.1177C3.64378 10.1266 3.60629 10.1274 3.56998 10.12H2.56998ZM4.50998 10.12C4.45346 10.1085 4.40265 10.0779 4.36616 10.0332C4.32966 9.98855 4.30972 9.93265 4.30972 9.87499C4.30972 9.81732 4.32966 9.76143 4.36616 9.71677C4.40265 9.67212 4.45346 9.64146 4.50998 9.62999H5.50998C5.54628 9.62261 5.58378 9.6234 5.61974 9.6323C5.65571 9.64119 5.68925 9.65797 5.71794 9.68142C5.74662 9.70487 5.76974 9.7344 5.78561 9.76787C5.80149 9.80135 5.80972 9.83794 5.80972 9.87499C5.80972 9.91204 5.80149 9.94863 5.78561 9.9821C5.76974 10.0156 5.74662 10.0451 5.71794 10.0686C5.68925 10.092 5.65571 10.1088 5.61974 10.1177C5.58378 10.1266 5.54628 10.1274 5.50998 10.12H4.50998ZM6.50998 10.12C6.47367 10.1274 6.43617 10.1266 6.40021 10.1177C6.36424 10.1088 6.3307 10.092 6.30201 10.0686C6.27333 10.0451 6.25021 10.0156 6.23434 9.9821C6.21846 9.94863 6.21022 9.91204 6.21022 9.87499C6.21022 9.83794 6.21846 9.80135 6.23434 9.76787C6.25021 9.7344 6.27333 9.70487 6.30201 9.68142C6.3307 9.65797 6.36424 9.64119 6.40021 9.6323C6.43617 9.6234 6.47367 9.62261 6.50998 9.62999H7.50998C7.56649 9.64146 7.6173 9.67212 7.65379 9.71677C7.69029 9.76143 7.71022 9.81732 7.71022 9.87499C7.71022 9.93265 7.69029 9.98855 7.65379 10.0332C7.6173 10.0779 7.56649 10.1085 7.50998 10.12H6.50998ZM8.44997 10.12C8.39346 10.1085 8.34265 10.0779 8.30616 10.0332C8.26966 9.98855 8.24973 9.93265 8.24973 9.87499C8.24973 9.81732 8.26966 9.76143 8.30616 9.71677C8.34265 9.67212 8.39346 9.64146 8.44997 9.62999H8.56998C8.66435 9.63273 8.75711 9.60505 8.83454 9.55103C8.91197 9.49701 8.96997 9.41951 8.99997 9.32999C9.02448 9.2695 9.07168 9.221 9.13147 9.19484C9.19126 9.16868 9.25892 9.16694 9.31998 9.18999C9.37888 9.21642 9.42584 9.26383 9.45171 9.32298C9.47759 9.38212 9.48054 9.44879 9.45998 9.50999C9.38548 9.68612 9.26205 9.8372 9.10431 9.94532C8.94656 10.0534 8.76112 10.1141 8.56998 10.12H8.44997ZM1.65998 10.07H1.56998C1.39571 9.99401 1.24671 9.86994 1.14045 9.71231C1.03418 9.55468 0.975045 9.37002 0.969974 9.17999V9.03999C0.968555 9.00809 0.973793 8.97625 0.985352 8.94649C0.99691 8.91673 1.01454 8.8897 1.03711 8.86712C1.05969 8.84455 1.08672 8.82692 1.11648 8.81536C1.14624 8.8038 1.17808 8.79857 1.20998 8.79999C1.27363 8.79999 1.33467 8.82527 1.37968 8.87028C1.42469 8.91529 1.44997 8.97633 1.44997 9.03999V9.15999C1.44961 9.25506 1.47808 9.34802 1.53164 9.42658C1.5852 9.50513 1.66133 9.5656 1.74997 9.59999C1.79748 9.62492 1.83571 9.66447 1.85901 9.7128C1.88231 9.76114 1.88944 9.81568 1.87935 9.86838C1.86926 9.92108 1.84248 9.96913 1.80298 10.0054C1.76347 10.0417 1.71334 10.0644 1.65998 10.07ZM1.20998 8.30999C1.14632 8.30999 1.08528 8.2847 1.04027 8.23969C0.995259 8.19468 0.969974 8.13364 0.969974 8.06999V7.06999C0.968625 7.03764 0.973835 7.00535 0.98529 6.97507C0.996746 6.94479 1.01421 6.91714 1.03663 6.89378C1.05905 6.87042 1.08597 6.85185 1.11576 6.83917C1.14555 6.82648 1.1776 6.81996 1.20998 6.81999C1.27453 6.82257 1.33558 6.85005 1.38032 6.89665C1.42506 6.94326 1.45003 7.00538 1.44997 7.06999V8.06999C1.45077 8.10619 1.44336 8.1421 1.42831 8.17504C1.41326 8.20797 1.39095 8.23707 1.36305 8.26016C1.33515 8.28325 1.30239 8.29972 1.26722 8.30835C1.23205 8.31698 1.19539 8.31754 1.15998 8.30999H1.20998ZM11.11 7.52999C11.1418 7.52999 11.1723 7.51734 11.1948 7.49484C11.2173 7.47233 11.23 7.44181 11.23 7.40999V5.54999C11.2314 5.53341 11.2293 5.51672 11.2239 5.50099C11.2185 5.48525 11.2099 5.47082 11.1986 5.45859C11.1873 5.44637 11.1736 5.43662 11.1583 5.42998C11.1431 5.42333 11.1266 5.41993 11.11 5.41999H7.26997C7.23726 5.42251 7.20671 5.43731 7.18445 5.46143C7.16219 5.48554 7.14988 5.51717 7.14997 5.54999V7.40999C7.14997 7.44181 7.16262 7.47233 7.18512 7.49484C7.20763 7.51734 7.23815 7.52999 7.26997 7.52999H11.11ZM8.26997 7.23999C8.11175 7.23999 7.95708 7.19307 7.82552 7.10516C7.69396 7.01726 7.59142 6.89231 7.53087 6.74613C7.47032 6.59995 7.45448 6.4391 7.48535 6.28391C7.51622 6.12873 7.59241 5.98618 7.70429 5.8743C7.81617 5.76242 7.95872 5.68623 8.1139 5.65536C8.26909 5.62449 8.42994 5.64033 8.57612 5.70088C8.7223 5.76143 8.84725 5.86397 8.93515 5.99553C9.02306 6.12709 9.06998 6.28176 9.06998 6.43999C9.06998 6.65216 8.98569 6.85564 8.83566 7.00567C8.68563 7.1557 8.48215 7.23999 8.26997 7.23999ZM8.26997 6.75999C8.33326 6.75999 8.39513 6.74122 8.44776 6.70606C8.50038 6.6709 8.5414 6.62092 8.56562 6.56245C8.58984 6.50397 8.59618 6.43963 8.58383 6.37756C8.57148 6.31548 8.541 6.25846 8.49625 6.21371C8.4515 6.16896 8.39448 6.13848 8.33241 6.12614C8.27033 6.11379 8.20599 6.12012 8.14752 6.14434C8.08905 6.16856 8.03907 6.20958 8.00391 6.2622C7.96874 6.31483 7.94997 6.3767 7.94997 6.43999C7.94858 6.48239 7.95591 6.52462 7.9715 6.56407C7.98709 6.60353 8.01061 6.63936 8.0406 6.66936C8.0706 6.69935 8.10644 6.72288 8.14589 6.73846C8.18534 6.75405 8.22757 6.76138 8.26997 6.75999ZM2.26997 6.49999C2.22246 6.49751 2.17664 6.48154 2.13789 6.45393C2.09914 6.42632 2.06908 6.38823 2.05123 6.34412C2.03338 6.30002 2.02848 6.25174 2.03712 6.20495C2.04575 6.15816 2.06756 6.11481 2.09998 6.07999L4.19997 3.97999C4.22242 3.95607 4.24953 3.93701 4.27963 3.92398C4.30973 3.91095 4.34218 3.90423 4.37497 3.90423C4.40777 3.90423 4.44022 3.91095 4.47032 3.92398C4.50042 3.93701 4.52753 3.95607 4.54998 3.97999C4.59285 4.02622 4.61667 4.08694 4.61667 4.14999C4.61667 4.21304 4.59285 4.27376 4.54998 4.31999L2.43998 6.41999C2.41141 6.45631 2.37333 6.484 2.32998 6.49999H2.26997ZM1.11998 6.36999C1.05632 6.36999 0.995276 6.3447 0.950268 6.29969C0.905259 6.25468 0.879974 6.19364 0.879974 6.12999V5.12999C0.879974 5.09847 0.886182 5.06726 0.898243 5.03814C0.910304 5.00903 0.927982 4.98257 0.950268 4.96028C0.972554 4.938 0.999011 4.92032 1.02813 4.90826C1.05725 4.8962 1.08846 4.88999 1.11998 4.88999C1.15149 4.88999 1.1827 4.8962 1.21182 4.90826C1.24094 4.92032 1.26739 4.938 1.28968 4.96028C1.31197 4.98257 1.32964 5.00903 1.34171 5.03814C1.35377 5.06726 1.35997 5.09847 1.35997 5.12999V6.12999C1.36077 6.18728 1.34105 6.24297 1.30437 6.28698C1.26769 6.331 1.21647 6.36044 1.15998 6.36999H1.11998ZM2.03997 5.23999C2.00676 5.24142 1.97361 5.23594 1.94262 5.22389C1.91164 5.21184 1.88349 5.19349 1.85997 5.16999C1.8171 5.12376 1.79328 5.06303 1.79328 4.99999C1.79328 4.93694 1.8171 4.87622 1.85997 4.82999L2.95998 3.72999C3.00621 3.68711 3.06692 3.66329 3.12997 3.66329C3.19302 3.66329 3.25375 3.68711 3.29998 3.72999C3.32389 3.75243 3.34295 3.77954 3.35598 3.80964C3.36901 3.83974 3.37574 3.87219 3.37574 3.90499C3.37574 3.93779 3.36901 3.97023 3.35598 4.00033C3.34295 4.03043 3.32389 4.05754 3.29998 4.07999L2.20998 5.13999C2.19083 5.16822 2.16564 5.19184 2.13624 5.20913C2.10684 5.22643 2.07395 5.23697 2.03997 5.23999ZM1.15998 4.45999C1.1276 4.46002 1.09555 4.45349 1.06576 4.44081C1.03597 4.42813 1.00906 4.40955 0.986633 4.38619C0.964211 4.36284 0.946747 4.33519 0.935291 4.30491C0.923836 4.27462 0.918626 4.24234 0.919975 4.20999V3.77999C0.920325 3.53692 1.0092 3.30229 1.16998 3.11999C1.2162 3.07711 1.27692 3.05329 1.33997 3.05329C1.40302 3.05329 1.46375 3.07711 1.50998 3.11999C1.55578 3.16672 1.58144 3.22955 1.58144 3.29499C1.58144 3.36043 1.55578 3.42325 1.50998 3.46999C1.46784 3.5118 1.4346 3.5617 1.41226 3.6167C1.38992 3.67169 1.37894 3.73064 1.37997 3.78999V4.21999C1.3715 4.27431 1.34535 4.32433 1.30558 4.36229C1.26581 4.40025 1.21464 4.42404 1.15998 4.42999V4.45999ZM9.00998 3.45999C8.97835 3.46064 8.94693 3.45476 8.91768 3.44271C8.88842 3.43067 8.86197 3.41272 8.83997 3.38999C8.75313 3.30845 8.63908 3.26211 8.51997 3.25999H8.07998C8.04846 3.25999 8.01725 3.25378 7.98813 3.24172C7.95901 3.22966 7.93256 3.21198 7.91027 3.18969C7.88798 3.16741 7.87031 3.14095 7.85825 3.11183C7.84618 3.08271 7.83997 3.0515 7.83997 3.01999C7.83997 2.98847 7.84618 2.95726 7.85825 2.92814C7.87031 2.89902 7.88798 2.87257 7.91027 2.85028C7.93256 2.828 7.95901 2.81032 7.98813 2.79826C8.01725 2.7862 8.04846 2.77999 8.07998 2.77999H8.51997C8.76089 2.78551 8.99171 2.87783 9.16998 3.03999C9.19235 3.06228 9.2101 3.08878 9.22222 3.11795C9.23433 3.14712 9.24057 3.1784 9.24057 3.20999C9.24057 3.24158 9.23433 3.27285 9.22222 3.30202C9.2101 3.33119 9.19235 3.35769 9.16998 3.37999C9.15091 3.40517 9.12687 3.42616 9.09934 3.44164C9.07182 3.45713 9.0414 3.46677 9.00998 3.46999V3.45999ZM2.25998 3.23999C2.22763 3.24134 2.19534 3.23613 2.16506 3.22467C2.13478 3.21322 2.10712 3.19575 2.08377 3.17333C2.06041 3.15091 2.04183 3.12399 2.02915 3.0942C2.01647 3.06441 2.00995 3.03236 2.00998 2.99999C2.01256 2.93543 2.04004 2.87438 2.08664 2.82964C2.13325 2.7849 2.19537 2.75994 2.25998 2.75999H3.25998C3.32363 2.75999 3.38467 2.78527 3.42968 2.83028C3.47469 2.87529 3.49997 2.93633 3.49997 2.99999C3.49997 3.06364 3.47469 3.12468 3.42968 3.16969C3.38467 3.2147 3.32363 3.23999 3.25998 3.23999H2.25998ZM4.19997 3.23999C4.16763 3.24134 4.13534 3.23613 4.10506 3.22467C4.07477 3.21322 4.04712 3.19575 4.02377 3.17333C4.00041 3.15091 3.98183 3.12399 3.96915 3.0942C3.95647 3.06441 3.94995 3.03236 3.94997 2.99999C3.95256 2.93543 3.98003 2.87438 4.02664 2.82964C4.07325 2.7849 4.13537 2.75994 4.19997 2.75999H5.19997C5.26363 2.75999 5.32467 2.78527 5.36968 2.83028C5.41469 2.87529 5.43998 2.93633 5.43998 2.99999C5.43998 3.06364 5.41469 3.12468 5.36968 3.16969C5.32467 3.2147 5.26363 3.23999 5.19997 3.23999H4.19997ZM6.13998 3.23999C6.07632 3.23999 6.01528 3.2147 5.97027 3.16969C5.92526 3.12468 5.89997 3.06364 5.89997 2.99999C5.89997 2.93633 5.92526 2.87529 5.97027 2.83028C6.01528 2.78527 6.07632 2.75999 6.13998 2.75999H7.13998C7.20363 2.75999 7.26467 2.78527 7.30968 2.83028C7.35469 2.87529 7.37997 2.93633 7.37997 2.99999C7.37997 3.06364 7.35469 3.12468 7.30968 3.16969C7.26467 3.2147 7.20363 3.23999 7.13998 3.23999H6.13998ZM8.13998 1.82999L7.67997 0.519986L3.58997 1.82999H8.13998Z" fill="#FE624C"/>
</g>
<defs>
<clipPath id="clip0_230_37">
<rect width="11.67" height="10.99" fill="white"/>
</clipPath>
</defs>
</svg>
