<svg width="14" height="9" viewBox="0 0 14 9" fill="none" xmlns="http://www.w3.org/2000/svg">
<g clip-path="url(#clip0_230_77)">
<path d="M8.95003 8.81001C8.88638 8.81001 8.82533 8.78472 8.78032 8.73971C8.73531 8.6947 8.71002 8.63366 8.71002 8.57001C8.7086 8.53811 8.71384 8.50627 8.7254 8.47651C8.73696 8.44675 8.75459 8.41972 8.77716 8.39714C8.79974 8.37456 8.82677 8.35694 8.85653 8.34538C8.88629 8.33382 8.91813 8.32858 8.95003 8.33H10.04V4.49001H9.89002C9.50126 4.45693 9.12549 4.33404 8.79231 4.131C8.45913 3.92797 8.17764 3.65035 7.97003 3.32001C7.45497 2.42891 7.20842 1.40795 7.26003 0.380005C7.26003 0.316353 7.28531 0.255305 7.33032 0.210297C7.37533 0.165288 7.43637 0.140007 7.50002 0.140007H12.99C13.0537 0.140007 13.1147 0.165288 13.1597 0.210297C13.2047 0.255305 13.23 0.316353 13.23 0.380005C13.291 1.4304 13.0368 2.47508 12.5 3.38C12.291 3.69601 12.0134 3.96081 11.6879 4.15472C11.3625 4.34863 10.9974 4.46665 10.62 4.5H10.52V8.34H11.52C11.5837 8.34 11.6447 8.36529 11.6897 8.4103C11.7347 8.45531 11.76 8.51635 11.76 8.58C11.76 8.64365 11.7347 8.7047 11.6897 8.74971C11.6447 8.79472 11.5837 8.82001 11.52 8.82001L8.95003 8.81001ZM3.28002 8.72C3.15596 8.72114 3.03322 8.69445 2.92084 8.6419C2.80845 8.58935 2.70928 8.51226 2.63061 8.41632C2.55194 8.32038 2.49578 8.20804 2.46626 8.08753C2.43674 7.96703 2.43461 7.84144 2.46002 7.72C2.46254 7.68844 2.47128 7.6577 2.48573 7.62953C2.50019 7.60137 2.52007 7.57634 2.54424 7.55589C2.5684 7.53544 2.59638 7.51998 2.62655 7.51038C2.65672 7.50079 2.68849 7.49726 2.72003 7.5C2.75114 7.50123 2.78168 7.50878 2.80979 7.52216C2.83791 7.53555 2.86301 7.55451 2.88358 7.57788C2.90415 7.60126 2.91976 7.62856 2.92946 7.65815C2.93916 7.68774 2.94276 7.71898 2.94003 7.75C2.94003 8.08 3.11003 8.19 3.27003 8.19C3.43003 8.19 3.64003 8.06001 3.63003 7.74001V3.97L3.50002 3.85001L3.16003 3.67001C2.96618 3.62117 2.76258 3.6271 2.5719 3.68713C2.38122 3.74715 2.21094 3.85893 2.08003 4.01C2.05773 4.03238 2.03123 4.05013 2.00206 4.06224C1.97289 4.07435 1.94161 4.08059 1.91003 4.08059C1.87844 4.08059 1.84716 4.07435 1.81799 4.06224C1.78881 4.05013 1.76232 4.03238 1.74002 4.01C1.55627 3.84416 1.31755 3.75237 1.07002 3.75237C0.822501 3.75237 0.583776 3.84416 0.400025 4.01C0.360612 4.04788 0.309449 4.07118 0.254998 4.07603C0.200547 4.08087 0.146072 4.06698 0.100587 4.03666C0.0551017 4.00634 0.0213288 3.9614 0.00486082 3.90927C-0.0116071 3.85714 -0.00978287 3.80095 0.0100259 3.75C0.242977 3.00304 0.670466 2.33152 1.24863 1.80432C1.82679 1.27712 2.5348 0.913232 3.30003 0.75H3.70003V0.240005C3.70003 0.176354 3.72531 0.115306 3.77032 0.0702972C3.81533 0.0252885 3.87637 0 3.94003 0C4.00368 0 4.06473 0.0252885 4.10973 0.0702972C4.15474 0.115306 4.18002 0.176354 4.18002 0.240005V0.740005H4.50002C5.27234 0.849141 5.99122 1.19701 6.55604 1.73494C7.12086 2.27287 7.50337 2.97392 7.65003 3.74001C7.65995 3.78784 7.65504 3.83757 7.63595 3.88255C7.61686 3.92752 7.5845 3.96559 7.54319 3.99168C7.50188 4.01777 7.45359 4.03063 7.40478 4.02854C7.35597 4.02646 7.30896 4.00952 7.27003 3.98C7.03332 3.77408 6.74741 3.63285 6.44003 3.57001C6.30645 3.55571 6.17169 3.58251 6.05376 3.64684C5.93582 3.71117 5.84032 3.80996 5.78002 3.93C5.75655 3.95745 5.72742 3.97948 5.69462 3.99459C5.66182 4.0097 5.62614 4.01752 5.59003 4.01752C5.55392 4.01752 5.51823 4.0097 5.48543 3.99459C5.45263 3.97948 5.4235 3.95745 5.40003 3.93C5.09003 3.59 4.80002 3.48 4.50002 3.59L4.21002 3.76L4.11002 3.85001V7.69C4.135 7.81377 4.13241 7.94153 4.10245 8.06419C4.07249 8.18684 4.01588 8.3014 3.93665 8.39971C3.85743 8.49803 3.75753 8.57769 3.64404 8.63305C3.53056 8.6884 3.40627 8.71809 3.28002 8.72ZM10.28 4.02C10.6409 4.03727 11.0002 3.96067 11.3227 3.79767C11.6452 3.63467 11.9199 3.39085 12.12 3.09C12.5371 2.39885 12.7584 1.60726 12.76 0.800003V0.610001H7.76003V0.790001C7.77373 1.58609 7.99429 2.36493 8.40003 3.05C8.60071 3.35775 8.87725 3.60865 9.20302 3.77854C9.52879 3.94843 9.8928 4.03159 10.26 4.02H10.28ZM10.11 3.77C9.74765 3.71287 9.40452 3.56875 9.11002 3.35001C8.86 3.15664 8.67507 2.89145 8.58003 2.59C8.5609 2.53031 8.56589 2.46552 8.59392 2.40945C8.62195 2.35339 8.6708 2.31052 8.73003 2.29C8.78972 2.27088 8.85452 2.27587 8.91058 2.3039C8.96664 2.33193 9.00951 2.38078 9.03002 2.44C9.09577 2.65059 9.225 2.8357 9.40003 2.97C9.63743 3.1456 9.9167 3.25593 10.21 3.29C10.271 3.30436 10.3244 3.34112 10.3596 3.39297C10.3948 3.44483 10.4092 3.50802 10.4 3.57001C10.3927 3.62567 10.3653 3.67673 10.3229 3.71357C10.2805 3.75041 10.2262 3.77048 10.17 3.77H10.11ZM1.91003 3.54L2.01003 3.46001C2.26763 3.26053 2.58422 3.15228 2.91003 3.15228C3.23584 3.15228 3.55242 3.26053 3.81003 3.46001L3.87003 3.52L3.94003 3.46001C4.15678 3.26465 4.43823 3.15653 4.73003 3.15653C5.02182 3.15653 5.30328 3.26465 5.52003 3.46001H5.58003L5.65003 3.39001C5.76345 3.2822 5.89954 3.20111 6.04833 3.15266C6.19713 3.10422 6.35487 3.08964 6.51003 3.11C6.60844 3.12039 6.70558 3.14049 6.80003 3.17001L7.01003 3.26V3.2C6.78097 2.59544 6.36862 2.07762 5.8307 1.719C5.29277 1.36039 4.65619 1.17892 4.01003 1.2C3.43158 1.23142 2.86815 1.3957 2.36348 1.68012C1.85881 1.96454 1.42647 2.36144 1.10002 2.84L0.820023 3.31001H1.12003C1.41527 3.30984 1.70399 3.3968 1.95003 3.56001L1.91003 3.54ZM1.91003 2.88C1.8679 2.89448 1.82215 2.89448 1.78002 2.88C1.72729 2.84527 1.69037 2.79115 1.67727 2.72938C1.66417 2.66761 1.67593 2.60316 1.71002 2.55C2.00941 2.09239 2.46985 1.76402 3.00002 1.63C3.06229 1.61441 3.12817 1.62336 3.18402 1.65501C3.23987 1.68665 3.28141 1.73857 3.30003 1.8C3.30744 1.83087 3.30865 1.8629 3.30359 1.89424C3.29853 1.92558 3.28731 1.95561 3.27057 1.98258C3.25383 2.00955 3.2319 2.03294 3.20606 2.05138C3.18021 2.06982 3.15098 2.08294 3.12003 2.09C2.71043 2.20083 2.35505 2.45671 2.12003 2.81001C2.09548 2.84464 2.06218 2.87215 2.02353 2.88972C1.98488 2.90728 1.94226 2.91428 1.90003 2.91L1.91003 2.88Z" fill="#FE624C"/>
</g>
<defs>
<clipPath id="clip0_230_77">
<rect width="13.23" height="8.81" fill="white"/>
</clipPath>
</defs>
</svg>
