<svg width="53" height="54" viewBox="0 0 53 54" fill="none" xmlns="http://www.w3.org/2000/svg">
<g clip-path="url(#clip0_9405_1244)">
<path d="M41.2498 22.96C41.2498 15.96 34.8298 10.38 26.8998 10.38C18.9698 10.38 12.5498 16.06 12.5498 22.96C12.5498 29.86 18.9898 35.54 26.8998 35.54C27.2498 35.54 27.5998 35.54 27.9498 35.54L26.8998 43.97L34.6698 33.57C36.615 32.5513 38.2515 31.0297 39.4087 29.1636C40.566 27.2975 41.2018 25.1553 41.2498 22.96Z" fill="#FE624C"/>
<path d="M50.82 35.32H50.05C49.45 35.32 48.96 34.5 48.96 33.5V23.28C48.96 22.28 49.45 21.46 50.05 21.46H50.82C53.83 24.8 52.3 34.53 50.82 35.32Z" fill="#FE624C"/>
<path d="M1.73986 35.32H2.49986C3.09986 35.32 3.58986 34.5 3.58986 33.5V23.28C3.58986 22.28 3.09986 21.46 2.49986 21.46H1.73986C-1.28014 24.8 0.249862 34.53 1.73986 35.32Z" fill="#FE624C"/>
<path d="M47.8401 19.88H47.6201C46.1001 8.63 37.1801 0 26.4101 0C15.6401 0 6.72008 8.63 5.20008 19.88H4.76008C4.18191 19.88 3.62742 20.1097 3.21859 20.5185C2.80976 20.9273 2.58008 21.4818 2.58008 22.06V34.25C2.58271 34.8274 2.81323 35.3803 3.22149 35.7886C3.62975 36.1968 4.18272 36.4274 4.76008 36.43H6.29008C6.86651 36.4273 7.41844 36.1965 7.82511 35.788C8.23178 35.3794 8.46009 34.8264 8.46008 34.25V22.06C8.46762 21.6427 8.35465 21.2321 8.13472 20.8773C7.91479 20.5226 7.59722 20.2388 7.22008 20.06C8.64008 9.92 16.6801 2.14 26.4101 2.14C36.1401 2.14 44.1301 9.91 45.5901 20.06C45.1729 20.2051 44.8102 20.4746 44.5509 20.8323C44.2917 21.1899 44.1483 21.6184 44.1401 22.06V34.25C44.1403 34.7481 44.3111 35.2311 44.624 35.6187C44.937 36.0062 45.3732 36.2749 45.8601 36.38C45.7201 45.15 39.4201 49.55 29.6301 50.11V49.92C29.6301 49.6329 29.5734 49.3486 29.4632 49.0834C29.353 48.8183 29.1915 48.5775 28.988 48.375C28.7845 48.1724 28.543 48.012 28.2774 47.9031C28.0118 47.7941 27.7272 47.7387 27.4401 47.74H26.3901C25.8119 47.74 25.2574 47.9697 24.8486 48.3785C24.4398 48.7873 24.2101 49.3418 24.2101 49.92V51.06C24.2127 51.6374 24.4432 52.1903 24.8515 52.5986C25.2598 53.0068 25.8127 53.2374 26.3901 53.24H27.4401C27.7939 53.2411 28.1426 53.1561 28.4562 52.9924C28.7698 52.8286 29.0388 52.591 29.2401 52.3C43.6501 51.2 47.4401 45.23 47.8201 36.43C48.1064 36.4287 48.3896 36.371 48.6536 36.2602C48.9176 36.1495 49.1571 35.9878 49.3586 35.7844C49.5602 35.5811 49.7196 35.34 49.828 35.075C49.9363 34.81 49.9914 34.5263 49.9901 34.24V22.06C49.9927 21.4862 49.768 20.9347 49.3651 20.5262C48.9622 20.1176 48.4139 19.8853 47.8401 19.88Z" fill="#00B0E6"/>
<path d="M47.8401 19.88H47.6201C46.1001 8.63 37.1801 0 26.4101 0C15.6401 0 6.72008 8.63 5.20008 19.88H4.76008C4.18191 19.88 3.62742 20.1097 3.21859 20.5185C2.80976 20.9273 2.58008 21.4818 2.58008 22.06V34.25C2.58271 34.8274 2.81323 35.3803 3.22149 35.7886C3.62975 36.1968 4.18272 36.4274 4.76008 36.43H6.29008C6.86651 36.4273 7.41844 36.1965 7.82511 35.788C8.23178 35.3794 8.46009 34.8264 8.46008 34.25V22.06C8.46762 21.6427 8.35465 21.2321 8.13472 20.8773C7.91479 20.5226 7.59722 20.2388 7.22008 20.06C8.64008 9.92 16.6801 2.14 26.4101 2.14C36.1401 2.14 44.1301 9.91 45.5901 20.06C45.1729 20.2051 44.8102 20.4746 44.5509 20.8323C44.2917 21.1899 44.1483 21.6184 44.1401 22.06V34.25C44.1403 34.7481 44.3111 35.2311 44.624 35.6187C44.937 36.0062 45.3732 36.2749 45.8601 36.38C45.7201 45.15 39.4201 49.55 29.6301 50.11V49.92C29.6301 49.6329 29.5734 49.3486 29.4632 49.0834C29.353 48.8183 29.1915 48.5775 28.988 48.375C28.7845 48.1724 28.543 48.012 28.2774 47.9031C28.0118 47.7941 27.7272 47.7387 27.4401 47.74H26.3901C25.8119 47.74 25.2574 47.9697 24.8486 48.3785C24.4398 48.7873 24.2101 49.3418 24.2101 49.92V51.06C24.2127 51.6374 24.4432 52.1903 24.8515 52.5986C25.2598 53.0068 25.8127 53.2374 26.3901 53.24H27.4401C27.7939 53.2411 28.1426 53.1561 28.4562 52.9924C28.7698 52.8286 29.0388 52.591 29.2401 52.3C43.6501 51.2 47.4401 45.23 47.8201 36.43C48.1064 36.4287 48.3896 36.371 48.6536 36.2602C48.9176 36.1495 49.1571 35.9878 49.3586 35.7844C49.5602 35.5811 49.7196 35.34 49.828 35.075C49.9363 34.81 49.9914 34.5263 49.9901 34.24V22.06C49.9927 21.4862 49.768 20.9347 49.3651 20.5262C48.9622 20.1176 48.4139 19.8853 47.8401 19.88Z" fill="#FE624C"/>
<path d="M15.9298 25.29C15.9079 25.2914 15.886 25.2883 15.8655 25.2808C15.8449 25.2734 15.826 25.2619 15.8101 25.2469C15.7942 25.2319 15.7815 25.2138 15.7728 25.1937C15.7642 25.1736 15.7597 25.1519 15.7598 25.13V23.84C15.7668 23.7358 15.8091 23.637 15.8798 23.56C17.6698 21.71 18.6098 20.37 18.6098 19.64C18.6098 19.35 18.3998 19.19 18.0398 19.19C17.5567 19.2291 17.0951 19.4062 16.7098 19.7C16.6901 19.7078 16.6691 19.7114 16.648 19.7104C16.6269 19.7095 16.6063 19.7042 16.5874 19.6947C16.5685 19.6853 16.5519 19.672 16.5385 19.6557C16.5251 19.6393 16.5153 19.6204 16.5098 19.6L15.8998 18.2C15.8998 18.12 15.8998 18.07 15.9898 18C16.728 17.4455 17.6172 17.1282 18.5398 17.09C20.1598 17.09 21.1298 17.94 21.1298 19.37C21.0185 20.8408 20.3452 22.2123 19.2498 23.2H21.2498C21.2942 23.1998 21.3372 23.2159 21.3705 23.2455C21.4037 23.275 21.4248 23.3158 21.4298 23.36V25.13C21.4248 25.1742 21.4037 25.215 21.3705 25.2446C21.3372 25.2741 21.2942 25.2903 21.2498 25.29H15.9298Z" fill="white"/>
<path d="M27.99 21.91C28.0123 21.9086 28.0347 21.9117 28.0558 21.919C28.077 21.9263 28.0965 21.9377 28.1132 21.9526C28.1299 21.9675 28.1436 21.9855 28.1533 22.0056C28.163 22.0258 28.1687 22.0476 28.17 22.07V23.72C28.17 23.7432 28.1653 23.7661 28.1562 23.7874C28.147 23.8087 28.1336 23.8279 28.1167 23.8439C28.0999 23.8598 28.0799 23.8721 28.0581 23.88C28.0363 23.888 28.0131 23.8913 27.99 23.89H27.65V25.11C27.6514 25.1331 27.648 25.1563 27.64 25.1781C27.6321 25.1999 27.6198 25.2198 27.6039 25.2367C27.588 25.2536 27.5687 25.267 27.5474 25.2761C27.5261 25.2853 27.5032 25.29 27.48 25.29H25.39C25.366 25.2914 25.3419 25.2878 25.3194 25.2792C25.2969 25.2707 25.2765 25.2575 25.2595 25.2405C25.2425 25.2235 25.2292 25.2031 25.2207 25.1806C25.2122 25.1581 25.2085 25.134 25.21 25.11V23.89H22.14C22.1045 23.8902 22.0693 23.8829 22.0368 23.8685C22.0044 23.8541 21.9754 23.833 21.9517 23.8065C21.928 23.78 21.9103 23.7488 21.8997 23.7149C21.889 23.681 21.8857 23.6452 21.89 23.61V22.25C21.8878 22.1444 21.9156 22.0404 21.97 21.95L24.43 17.39C24.4471 17.3562 24.4727 17.3274 24.5042 17.3063C24.5358 17.2853 24.5722 17.2728 24.61 17.27H27.44C27.461 17.2686 27.4821 17.2714 27.502 17.2782C27.522 17.2851 27.5403 17.2957 27.5561 17.3097C27.5719 17.3236 27.5848 17.3405 27.5941 17.3595C27.6033 17.3784 27.6087 17.399 27.61 17.42V21.91H27.99ZM25.25 21.91V19.64L24.25 21.91H25.25Z" fill="white"/>
<path d="M29.9902 27.81H27.9902L30.4102 19.81H32.4102L29.9902 27.81Z" fill="white"/>
<path d="M35.1602 24.97H32.5802C32.4802 24.97 32.4302 24.9 32.4302 24.8V23.06C32.4327 23.014 32.4528 22.9708 32.4863 22.9391C32.5198 22.9075 32.5641 22.8899 32.6102 22.89H37.8802C37.9244 22.895 37.9652 22.9161 37.9947 22.9493C38.0243 22.9825 38.0405 23.0255 38.0402 23.07V24.36C38.0326 24.4706 38.0055 24.5789 37.9602 24.68L34.8702 31.17C34.8488 31.2097 34.8134 31.24 34.7708 31.2548C34.7282 31.2696 34.6816 31.2679 34.6402 31.25L32.8002 30.32C32.7791 30.3124 32.7598 30.3005 32.7436 30.285C32.7275 30.2695 32.7147 30.2508 32.7062 30.23C32.6977 30.2093 32.6937 30.187 32.6944 30.1646C32.6951 30.1422 32.7005 30.1202 32.7102 30.1L35.1602 24.97Z" fill="white"/>
</g>
<defs>
<clipPath id="clip0_9405_1244">
<rect width="52.55" height="53.24" fill="white"/>
</clipPath>
</defs>
</svg>
