<svg width="53" height="62" viewBox="0 0 53 62" fill="none" xmlns="http://www.w3.org/2000/svg">
<g clip-path="url(#clip0_637_250)">
<path d="M12.26 21.7499L23.05 35.5599C23.05 35.5599 25.4 28.9599 35.49 25.8299C45.58 22.6999 45.88 17.7099 45.88 17.7099L35.08 3.8999C35.08 3.8999 33.72 8.3399 25.08 11.7299C13.49 16.2799 12.26 21.7499 12.26 21.7499Z" fill="#FE816F"/>
<g style="mix-blend-mode:multiply" opacity="0.5">
<path d="M41.4 20.6399C39.3933 22.0955 37.1455 23.1856 34.76 23.8599C31.7771 24.7407 28.9809 26.1609 26.51 28.0499C25.0566 29.1694 23.7762 30.497 22.71 31.9899L14.63 21.6599C15.5025 20.2514 16.6362 19.0227 17.97 18.0399C20.4196 16.2142 23.1123 14.74 25.97 13.6599C28.4264 12.7403 30.7369 11.4705 32.83 9.88991C33.7787 9.157 34.6439 8.32198 35.41 7.3999L43.67 17.9399C43.1325 19.0034 42.3554 19.9277 41.4 20.6399Z" fill="#FE816F"/>
</g>
<path d="M32.95 16.98C33.5266 17.7208 33.8707 18.6158 33.939 19.552C34.0072 20.4882 33.7966 21.4237 33.3336 22.2402C32.8706 23.0568 32.1761 23.7179 31.3376 24.14C30.4992 24.5622 29.5545 24.7264 28.6228 24.6121C27.6911 24.4977 26.8142 24.1098 26.1027 23.4974C25.3913 22.8851 24.8773 22.0756 24.6255 21.1713C24.3738 20.267 24.3956 19.3083 24.6883 18.4164C24.981 17.5245 25.5314 16.7393 26.27 16.16C26.762 15.7741 27.3253 15.4891 27.9277 15.3214C28.5301 15.1538 29.1597 15.1067 29.7803 15.1829C30.4009 15.259 31.0004 15.457 31.5443 15.7654C32.0883 16.0738 32.566 16.4866 32.95 16.98Z" fill="#FE816F"/>
<g style="mix-blend-mode:multiply" opacity="0.5">
<path d="M30.85 22.7298C30.6496 22.8714 30.4351 22.992 30.21 23.0898C30.0513 23.1612 29.8827 23.2084 29.71 23.2298L29.35 22.2998C29.4861 22.2835 29.6201 22.2534 29.75 22.2097C29.9234 22.1406 30.0907 22.057 30.25 21.9597L29.05 20.4297H28.51C28.3276 20.4551 28.1425 20.4551 27.96 20.4297C27.7686 20.3833 27.5861 20.3056 27.42 20.1998C27.2218 20.0768 27.0487 19.9173 26.91 19.7298C26.6529 19.4278 26.5081 19.0463 26.5 18.6497C26.5093 18.2811 26.6473 17.9274 26.89 17.6497L26.38 17.0198L27.05 16.4897L27.54 17.1098C27.6875 16.9965 27.8488 16.9024 28.02 16.8298C28.1718 16.768 28.3292 16.7212 28.49 16.6898L28.82 17.5997C28.7094 17.6135 28.6016 17.6439 28.5 17.6898C28.3702 17.7353 28.246 17.7957 28.13 17.8698L29.21 19.2498H29.77C29.9585 19.2455 30.1467 19.2656 30.33 19.3098C30.5192 19.3532 30.7012 19.4239 30.87 19.5198C31.068 19.6389 31.2411 19.7951 31.38 19.9798C31.6632 20.3061 31.8287 20.7181 31.85 21.1497C31.8357 21.5139 31.7062 21.864 31.48 22.1497L31.99 22.8098L31.32 23.3298L30.85 22.7298ZM27.75 18.1598C27.6844 18.215 27.6316 18.2839 27.5954 18.3616C27.5591 18.4393 27.5402 18.524 27.54 18.6098C27.559 18.7544 27.614 18.8919 27.7 19.0098C27.8061 19.1439 27.9539 19.2389 28.12 19.2798C28.2957 19.3055 28.4743 19.3055 28.65 19.2798L27.75 18.1598ZM30.62 21.6598C30.6802 21.5976 30.7272 21.524 30.7581 21.4432C30.7891 21.3624 30.8033 21.2762 30.8 21.1898C30.784 21.0101 30.7143 20.8394 30.6 20.6998C30.4919 20.5524 30.3366 20.4466 30.16 20.3997C29.978 20.369 29.7921 20.369 29.61 20.3997L30.62 21.6598Z" fill="#FE816F"/>
</g>
<path d="M37.9001 17.5598C37.7631 17.6592 37.6155 17.743 37.4601 17.8098C37.3497 17.8621 37.2314 17.8959 37.1101 17.9098L36.8601 17.2598C36.9555 17.2512 37.0495 17.231 37.1401 17.1998C37.2615 17.1534 37.3786 17.0965 37.4901 17.0298L36.6501 15.9597H36.2801C36.1536 15.9701 36.0265 15.9701 35.9001 15.9597C35.77 15.9235 35.6455 15.8697 35.5301 15.7998C35.3892 15.7149 35.2668 15.6027 35.1701 15.4698C34.9907 15.2601 34.8884 14.9955 34.8801 14.7198C34.8926 14.4677 34.9915 14.2276 35.16 14.0397L34.8 13.5997L35.2701 13.2397L35.6001 13.6698C35.7031 13.587 35.8177 13.5197 35.94 13.4698L36.2601 13.3698L36.5001 13.9998L36.2701 14.0598L36.0201 14.1998L36.7701 15.1998H37.1501C37.2796 15.185 37.4105 15.185 37.5401 15.1998C37.6735 15.2305 37.8016 15.281 37.9201 15.3497C38.0575 15.4312 38.1767 15.5401 38.2701 15.6698C38.4682 15.8948 38.5845 16.1803 38.6001 16.4798C38.5974 16.7423 38.5057 16.9961 38.3401 17.1998L38.7001 17.6598L38.2301 18.0198L37.9001 17.5598ZM35.7501 14.3898C35.7054 14.428 35.6697 14.4755 35.6455 14.5291C35.6213 14.5827 35.6092 14.641 35.6101 14.6998C35.6228 14.8008 35.6606 14.8971 35.7201 14.9798C35.7893 15.0755 35.8935 15.1402 36.0101 15.1598C36.1329 15.1759 36.2572 15.1759 36.3801 15.1598L35.7501 14.3898ZM37.7501 16.8197C37.7912 16.7756 37.823 16.7236 37.8436 16.6669C37.8642 16.6103 37.8732 16.55 37.8701 16.4897C37.8588 16.3649 37.81 16.2463 37.7301 16.1497C37.6549 16.0497 37.5498 15.9762 37.4301 15.9398C37.3005 15.9241 37.1696 15.9241 37.0401 15.9398L37.7501 16.8197Z" fill="#FE816F"/>
<path d="M22.73 26.2599C22.5945 26.3616 22.4467 26.4456 22.29 26.5099C22.1775 26.5565 22.0601 26.59 21.94 26.6099L21.69 25.9599L21.97 25.8999C22.0914 25.8536 22.2085 25.7967 22.32 25.7299L21.48 24.6599C21.36 24.6599 21.24 24.6599 21.11 24.6599C20.9838 24.6744 20.8563 24.6744 20.73 24.6599C20.6 24.6237 20.4755 24.5699 20.36 24.4999C20.221 24.4127 20.099 24.3009 20 24.1699C19.8214 23.9606 19.7223 23.6951 19.72 23.4199C19.7306 23.1693 19.8257 22.9296 19.99 22.7399L19.64 22.2999L20.1 21.9399L20.43 22.3599C20.5379 22.2874 20.6516 22.2238 20.77 22.1699C20.8772 22.1306 20.9876 22.1005 21.1 22.0799L21.33 22.7099C21.2537 22.717 21.1793 22.7373 21.11 22.7699L20.85 22.8899L21.6 23.8899C21.7265 23.88 21.8535 23.88 21.98 23.8899C22.1126 23.8705 22.2474 23.8705 22.38 23.8899C22.5097 23.9225 22.6342 23.973 22.75 24.0399C22.8875 24.1214 23.0066 24.2303 23.1 24.3599C23.2982 24.585 23.4145 24.8705 23.43 25.1699C23.4342 25.4336 23.3417 25.6897 23.17 25.8899L23.53 26.3499L23.06 26.7099L22.73 26.2599ZM20.59 23.0899C20.5424 23.1261 20.5039 23.1731 20.4779 23.227C20.4518 23.2808 20.4388 23.3401 20.44 23.3999C20.4499 23.5035 20.4919 23.6014 20.56 23.6799C20.6278 23.7745 20.7271 23.8419 20.84 23.8699C20.9628 23.8857 21.0872 23.8857 21.21 23.8699L20.59 23.0899ZM22.59 25.5199C22.6703 25.429 22.7131 25.3111 22.71 25.1899C22.7007 25.0646 22.6517 24.9455 22.57 24.8499C22.4971 24.7496 22.3907 24.6787 22.27 24.6499C22.1442 24.6292 22.0158 24.6292 21.89 24.6499L22.59 25.5199Z" fill="#FE816F"/>
<path d="M7.1501 24.5598L21.9901 33.8898C21.9901 33.8898 21.9901 26.8898 30.3901 20.5198C38.7901 14.1498 37.3901 9.35979 37.3901 9.35979L22.5501 0.0297852C22.5501 0.0297852 22.7801 4.65978 15.7801 10.7898C6.4501 18.9498 7.1501 24.5598 7.1501 24.5598Z" fill="#FE816F"/>
<g style="mix-blend-mode:multiply" opacity="0.5">
<path d="M34.1401 13.6099C32.751 15.6654 31.0031 17.454 28.9801 18.8899C26.4744 20.7363 24.326 23.0236 22.6401 25.6399C21.6536 27.1885 20.899 28.8729 20.4001 30.6399L9.30005 23.6399C9.64344 22.0145 10.2952 20.47 11.2201 19.0899C12.9141 16.5287 14.9648 14.2221 17.3101 12.2399C19.3122 10.5476 21.0542 8.56977 22.4801 6.3699C23.1292 5.35964 23.6626 4.2795 24.0701 3.1499L35.4001 10.2899C35.2427 11.4792 34.8114 12.6157 34.1401 13.6099Z" fill="#FE816F"/>
</g>
<path d="M24.99 13.02C25.7818 13.5201 26.4081 14.243 26.7902 15.0979C27.1723 15.9529 27.2932 16.9017 27.1376 17.8251C26.9821 18.7485 26.5571 19.6054 25.916 20.288C25.2749 20.9705 24.4464 21.4484 23.5345 21.6615C22.6226 21.8746 21.6681 21.8134 20.7909 21.4856C19.9137 21.1578 19.153 20.5781 18.6043 19.8192C18.0557 19.0603 17.7435 18.1562 17.7072 17.2205C17.6708 16.2848 17.9119 15.3592 18.4 14.56C18.7283 14.0226 19.1602 13.5558 19.6705 13.1868C20.1809 12.8179 20.7595 12.554 21.3727 12.4107C21.986 12.2674 22.6216 12.2475 23.2426 12.3521C23.8636 12.4567 24.4576 12.6838 24.99 13.02Z" fill="#FE816F"/>
<g style="mix-blend-mode:multiply" opacity="0.5">
<path d="M24.9701 19.1396C24.8299 19.3424 24.6691 19.5301 24.4901 19.6996C24.3614 19.8192 24.2167 19.9202 24.0601 19.9996L23.41 19.2396C23.5323 19.1811 23.6466 19.1071 23.7501 19.0196C23.8957 18.9028 24.0296 18.7722 24.1501 18.6296L22.4901 17.6296L22.0001 17.8496C21.8292 17.916 21.6514 17.963 21.4701 17.9896C21.2779 18.0191 21.0823 18.0191 20.8901 17.9896C20.658 17.9423 20.4373 17.8506 20.2401 17.7196C19.8948 17.5305 19.6313 17.2208 19.5001 16.8496C19.3753 16.5107 19.3753 16.1385 19.5001 15.7996L18.8101 15.3696L19.2601 14.6496L19.9201 15.0696C20.0223 14.9123 20.1432 14.7679 20.2801 14.6396C20.4008 14.5311 20.5314 14.434 20.6701 14.3496L21.3 15.0896C21.2032 15.1427 21.1127 15.2064 21.0301 15.2796C20.9235 15.3696 20.8264 15.4701 20.7401 15.5796L22.2301 16.5196C22.3919 16.4329 22.5589 16.3561 22.7301 16.2896C22.9058 16.217 23.091 16.1699 23.2801 16.1496C23.4722 16.1198 23.6679 16.1198 23.8601 16.1496C24.0868 16.1881 24.3021 16.277 24.4901 16.4096C24.8731 16.6129 25.171 16.9462 25.33 17.3496C25.4551 17.7056 25.4551 18.0936 25.33 18.4496L26.0301 18.8996L25.58 19.6096L24.9701 19.1396ZM20.5101 15.8896C20.4641 15.9636 20.4357 16.0471 20.427 16.1338C20.4183 16.2205 20.4296 16.308 20.4601 16.3896C20.526 16.5206 20.6262 16.6312 20.7501 16.7096C20.8894 16.8078 21.0618 16.8473 21.2301 16.8196C21.4097 16.795 21.5849 16.7444 21.7501 16.6696L20.5101 15.8896ZM24.3901 18.2096C24.4248 18.1308 24.4427 18.0457 24.4427 17.9596C24.4427 17.8735 24.4248 17.7884 24.3901 17.7096C24.3125 17.546 24.1869 17.41 24.0301 17.3196C23.8812 17.2157 23.7011 17.1663 23.5201 17.1796C23.3408 17.2113 23.1661 17.2651 23.0001 17.3396L24.3901 18.2096Z" fill="#FE816F"/>
</g>
<path d="M29.83 11.84C29.7354 11.9794 29.6283 12.1099 29.5101 12.23C29.4189 12.3119 29.3182 12.3824 29.2101 12.44L28.7501 11.91C28.8372 11.8725 28.9182 11.8219 28.9901 11.76C29.0931 11.6769 29.187 11.5831 29.2701 11.48L28.1201 10.76L27.7801 10.92C27.6606 10.9641 27.5364 10.9943 27.41 11.01C27.2771 11.0247 27.143 11.0247 27.0101 11.01C26.8484 10.9691 26.6934 10.9052 26.55 10.82C26.3141 10.6824 26.1336 10.4666 26.0401 10.21C25.9553 9.97402 25.9553 9.71594 26.0401 9.47998L25.5601 9.17998L25.8701 8.68999L26.33 8.97998C26.4012 8.86754 26.4889 8.76641 26.5901 8.67998C26.6739 8.60543 26.7643 8.5385 26.8601 8.47998L27.2901 8.98997L27.1001 9.11998C27.0295 9.18672 26.9658 9.26043 26.91 9.33998L27.91 9.97998L28.2501 9.81998C28.373 9.77589 28.5004 9.74571 28.6301 9.72998C28.7656 9.7052 28.9045 9.7052 29.0401 9.72998C29.197 9.76104 29.3464 9.82217 29.4801 9.90999C29.7414 10.0548 29.9459 10.2839 30.0601 10.56C30.1502 10.8087 30.1502 11.0812 30.0601 11.33L30.5601 11.64L30.2401 12.13L29.83 11.84ZM26.7401 9.55998C26.7166 9.61182 26.7044 9.66807 26.7044 9.72498C26.7044 9.78188 26.7166 9.83814 26.7401 9.88998C26.7812 9.9856 26.8511 10.066 26.94 10.12C27.0396 10.179 27.1545 10.2068 27.2701 10.2C27.3943 10.179 27.5153 10.142 27.6301 10.09L26.7401 9.55998ZM29.44 11.16C29.4845 11.051 29.4845 10.9289 29.44 10.82C29.3815 10.704 29.2914 10.607 29.1801 10.54C29.0765 10.4721 28.9535 10.4405 28.83 10.45C28.7025 10.4708 28.5782 10.5077 28.4601 10.56L29.44 11.16Z" fill="#FE816F"/>
<path d="M18.53 25.2099C18.4379 25.354 18.3269 25.4851 18.2 25.5999C18.1103 25.6791 18.0132 25.7494 17.91 25.8099L17.45 25.2799C17.5359 25.24 17.6165 25.1896 17.69 25.1299C17.7874 25.0439 17.8777 24.9503 17.96 24.8499L16.81 24.1399L16.47 24.2899C16.3532 24.3337 16.2327 24.3672 16.11 24.3899C15.974 24.4094 15.836 24.4094 15.7 24.3899C15.5386 24.3578 15.3855 24.2931 15.25 24.1999C15.0151 24.0628 14.8322 23.8518 14.73 23.5999C14.6453 23.3639 14.6453 23.1058 14.73 22.8699L14.25 22.5699L14.56 22.0699L15.02 22.3599C15.0875 22.2477 15.1718 22.1465 15.27 22.0599L15.54 21.8599L15.98 22.3799C15.9107 22.4138 15.8467 22.4576 15.79 22.5099C15.7159 22.5724 15.6489 22.6428 15.59 22.7199L16.59 23.3699L16.94 23.2099C17.0606 23.1569 17.1889 23.1231 17.32 23.1099C17.4559 23.09 17.594 23.09 17.73 23.1099C17.8837 23.1412 18.0298 23.2023 18.16 23.2899C18.4248 23.4379 18.6324 23.6702 18.75 23.9499C18.8403 24.1951 18.8403 24.4646 18.75 24.7099L19.24 25.0199L18.93 25.5199L18.53 25.2099ZM15.4 22.9599C15.3736 23.0126 15.3598 23.0709 15.3598 23.1299C15.3598 23.1889 15.3736 23.2471 15.4 23.2999C15.4384 23.3946 15.5093 23.4726 15.6 23.5199C15.647 23.5544 15.7003 23.5792 15.757 23.593C15.8136 23.6067 15.8724 23.609 15.93 23.5999C16.0509 23.5839 16.1689 23.5502 16.28 23.4999L15.4 22.9599ZM18.09 24.5699C18.1351 24.4575 18.1351 24.3322 18.09 24.2199C18.0355 24.1043 17.9487 24.007 17.84 23.9399C17.7369 23.8717 17.6125 23.8432 17.49 23.8599C17.3617 23.8709 17.2364 23.9047 17.12 23.9599L18.09 24.5699Z" fill="#FE816F"/>
<path d="M2.89007 30.28L19.7101 35.21C19.7101 35.21 17.7701 28.48 24.1501 20.05C30.5301 11.62 27.8501 7.39998 27.8501 7.39998L11.0301 2.47998C11.0301 2.47998 12.5201 6.86998 7.46006 14.67C0.700058 25.11 2.89007 30.28 2.89007 30.28Z" fill="#FE816F"/>
<g style="mix-blend-mode:multiply" opacity="0.5">
<path d="M25.8901 12.4196C25.1078 14.7752 23.9125 16.9728 22.3601 18.9096C20.4556 21.3664 19.0123 24.148 18.1001 27.1196C17.5736 28.878 17.3074 30.7041 17.3101 32.5396L4.72009 28.8596C4.61411 27.2025 4.82104 25.5402 5.33007 23.9596C6.26446 21.0335 7.61135 18.2555 9.33007 15.7096C10.7921 13.5334 11.9274 11.1549 12.7001 8.64963C13.0492 7.50125 13.2673 6.31705 13.3501 5.11963L26.2101 8.87964C26.3769 10.0685 26.2674 11.2799 25.8901 12.4196Z" fill="#FE816F"/>
</g>
<path d="M16.9201 14.3397C17.8242 14.6033 18.6298 15.1292 19.2349 15.8508C19.8401 16.5724 20.2175 17.4573 20.3196 18.3936C20.4217 19.3298 20.2437 20.2752 19.8083 21.1103C19.3728 21.9453 18.6995 22.6325 17.8734 23.0847C17.0473 23.5369 16.1057 23.734 15.1676 23.6509C14.2295 23.5677 13.3372 23.2082 12.6034 22.6178C11.8697 22.0274 11.3277 21.2326 11.0458 20.334C10.764 19.4354 10.755 18.4734 11.0201 17.5697C11.375 16.3596 12.1957 15.3398 13.3019 14.7342C14.4081 14.1286 15.7094 13.9867 16.9201 14.3397Z" fill="#FE816F"/>
<g style="mix-blend-mode:multiply" opacity="0.5">
<path d="M18.57 20.24C18.4863 20.4719 18.3825 20.6961 18.26 20.91C18.1702 21.0618 18.059 21.1998 17.93 21.32L17.09 20.76C17.1953 20.6719 17.2894 20.5712 17.37 20.46C17.4705 20.3027 17.5607 20.139 17.64 19.97L15.76 19.42L15.35 19.77C15.2029 19.8785 15.0455 19.9723 14.88 20.05C14.6977 20.1205 14.5052 20.161 14.31 20.17C14.0737 20.1849 13.8367 20.1579 13.61 20.09C13.2091 20.0072 12.853 19.7793 12.61 19.45C12.4135 19.1556 12.3251 18.8022 12.36 18.45L11.58 18.23L11.81 17.41L12.57 17.63C12.6224 17.4501 12.6998 17.2784 12.8 17.12C12.8852 16.9819 12.9823 16.8514 13.09 16.73L13.9 17.28C13.8175 17.3558 13.7467 17.4434 13.69 17.54C13.6111 17.6528 13.5441 17.7734 13.49 17.9L15.18 18.4C15.31 18.27 15.46 18.16 15.6 18.04C15.7503 17.9255 15.915 17.8314 16.09 17.76C16.2707 17.6798 16.4632 17.6292 16.66 17.61C16.8863 17.5942 17.1137 17.6213 17.33 17.69C17.7549 17.7851 18.1334 18.0256 18.4 18.37C18.6215 18.677 18.7277 19.0524 18.7 19.43L19.51 19.67L19.26 20.47L18.57 20.24ZM13.4 18.33C13.3761 18.4131 13.3719 18.5005 13.3875 18.5855C13.4031 18.6705 13.4382 18.7508 13.49 18.82C13.5906 18.9282 13.7184 19.0076 13.86 19.05C14.0186 19.1056 14.1914 19.1056 14.35 19.05C14.5129 18.975 14.6644 18.8774 14.8 18.76L13.4 18.33ZM17.77 19.5C17.792 19.3291 17.7452 19.1564 17.64 19.02C17.5227 18.8821 17.3654 18.7842 17.19 18.74C17.0184 18.6798 16.8315 18.6798 16.66 18.74C16.4972 18.8207 16.343 18.9179 16.2 19.03L17.77 19.5Z" fill="#FE816F"/>
</g>
<path d="M21.2501 11.8897C21.1988 12.0492 21.1318 12.2033 21.05 12.3497C20.9856 12.4524 20.9083 12.5465 20.8201 12.6297L20.2401 12.2497C20.3105 12.1864 20.3741 12.116 20.4301 12.0397C20.5041 11.9307 20.5645 11.8132 20.6101 11.6897L19.3101 11.3197L19.0301 11.5597C18.9282 11.6361 18.8174 11.7 18.7001 11.7497C18.4158 11.8528 18.1043 11.8528 17.8201 11.7497C17.5522 11.6857 17.3152 11.53 17.1501 11.3097C17.0157 11.0986 16.9558 10.8487 16.9801 10.5997L16.4301 10.4397L16.6001 9.87967L17.1201 10.0397C17.1578 9.9133 17.2115 9.79231 17.2801 9.67966L17.4901 9.40967L18.0401 9.78966L17.9001 9.96967C17.8468 10.0475 17.8032 10.1314 17.7701 10.2197L18.94 10.5697C19.032 10.481 19.1289 10.3976 19.2301 10.3197C19.3361 10.2414 19.4501 10.1743 19.5701 10.1197C19.6953 10.0699 19.8263 10.0363 19.9601 10.0197C20.1887 10.0147 20.4157 10.0585 20.6261 10.1482C20.8364 10.2379 21.0253 10.3713 21.1801 10.5397C21.3279 10.7569 21.3984 11.0175 21.3801 11.2797L21.94 11.4497L21.7701 12.0097L21.2501 11.8897ZM17.66 10.5597C17.6463 10.6164 17.6454 10.6755 17.6575 10.7326C17.6696 10.7897 17.6944 10.8434 17.7301 10.8897C17.7981 10.9661 17.884 11.0245 17.9801 11.0597C18.0913 11.0903 18.2088 11.0903 18.3201 11.0597C18.4332 11.004 18.5404 10.937 18.6401 10.8597L17.66 10.5597ZM20.66 11.3697C20.6738 11.2459 20.6418 11.1214 20.5701 11.0197C20.4819 10.9294 20.3715 10.8639 20.2501 10.8297C20.1335 10.7893 20.0067 10.7893 19.8901 10.8297C19.7707 10.8838 19.6596 10.9545 19.5601 11.0397L20.66 11.3697Z" fill="#FE816F"/>
<path d="M14.03 27.8299C13.9775 27.9938 13.9071 28.1514 13.82 28.2999C13.7555 28.4026 13.6782 28.4967 13.59 28.5799L13.01 28.1999C13.0804 28.1366 13.1441 28.0662 13.2 27.9899C13.27 27.8821 13.3302 27.7683 13.38 27.6499L12.09 27.2699L11.8 27.5099C11.6995 27.5885 11.5884 27.6524 11.47 27.6999C11.1857 27.803 10.8742 27.803 10.59 27.6999C10.3251 27.6353 10.0914 27.4795 9.92996 27.2599C9.7883 27.0517 9.72457 26.8003 9.74997 26.5499L9.20996 26.3999L9.36996 25.8299L9.88997 25.9799C9.92616 25.8543 9.98366 25.7359 10.06 25.6299C10.1185 25.5341 10.1854 25.4437 10.26 25.3599L10.82 25.7399C10.7655 25.7934 10.7184 25.8539 10.68 25.9199C10.6232 25.9971 10.5762 26.0811 10.54 26.1699L11.71 26.5199L12 26.2599C12.1077 26.1869 12.2214 26.1233 12.34 26.0699C12.4652 26.0201 12.5963 25.9865 12.73 25.9699C12.8884 25.9572 13.0478 25.9742 13.2 26.0199C13.4923 26.0958 13.7542 26.2599 13.95 26.4899C14.1024 26.7049 14.1733 26.9673 14.15 27.2299L14.71 27.3999L14.54 27.9599L14.03 27.8299ZM10.4 26.5599C10.3846 26.6175 10.3821 26.6778 10.3924 26.7365C10.4028 26.7952 10.4258 26.851 10.46 26.8999C10.5256 26.9768 10.6126 27.0325 10.71 27.0599C10.8231 27.1003 10.9468 27.1003 11.06 27.0599C11.172 27.0077 11.2763 26.9404 11.37 26.8599L10.4 26.5599ZM13.4 27.3799C13.4151 27.2592 13.3828 27.1373 13.31 27.0399C13.2243 26.9443 13.1134 26.875 12.99 26.8399C12.8743 26.7942 12.7456 26.7942 12.63 26.8399C12.515 26.8881 12.4074 26.9521 12.31 27.0299L13.4 27.3799Z" fill="#FE816F"/>
<path d="M43.2968 20.1091L3.80473 27.2362C1.93508 27.5736 0.69296 29.3628 1.03038 31.2325L6.01916 58.8759C6.35658 60.7456 8.14575 61.9877 10.0154 61.6503L49.5075 54.5232C51.3771 54.1858 52.6192 52.3966 52.2818 50.5269L47.293 22.8835C46.9556 21.0138 45.1664 19.7717 43.2968 20.1091Z" fill="#303030"/>
<g style="mix-blend-mode:multiply" opacity="0.5">
<path d="M52.27 50.56L51.71 47.42C51.8048 48.2834 51.5686 49.1507 51.0489 49.8467C50.5292 50.5427 49.7648 51.0156 48.91 51.17L9.39998 58.28C8.95545 58.3608 8.49936 58.3533 8.05774 58.2578C7.61613 58.1623 7.19765 57.9808 6.82621 57.7236C6.45476 57.4663 6.13762 57.1385 5.8929 56.7587C5.64819 56.3788 5.48069 55.9545 5.39998 55.51L0.979984 31C0.974771 31.0833 0.974771 31.1667 0.979984 31.25L5.97998 58.89C6.05954 59.3354 6.2262 59.7608 6.47042 60.1418C6.71463 60.5227 7.0316 60.8517 7.40317 61.1099C7.77474 61.3682 8.1936 61.5506 8.63578 61.6467C9.07795 61.7428 9.53474 61.7507 9.97998 61.67L49.5 54.56C49.9451 54.4805 50.3702 54.3138 50.7506 54.0694C51.1311 53.8251 51.4595 53.5079 51.717 53.1362C51.9744 52.7644 52.1558 52.3454 52.2507 51.9033C52.3456 51.4612 52.3522 51.0047 52.27 50.56Z" fill="#FE816F"/>
</g>
<path d="M47.9228 26.38L1.66016 34.729L5.47856 55.8872L51.7412 47.5382L47.9228 26.38Z" fill="#8F8F8F"/>
<g style="mix-blend-mode:multiply" opacity="0.5">
<path d="M24.5401 48.1599C23.4601 47.3599 22.1801 46.4599 20.7801 45.5299C20.0801 45.0799 19.3601 44.5799 18.6101 44.1299L17.2201 43.2599L18.0601 41.9699C18.5401 41.2699 18.9501 40.5499 19.3801 39.8599C20.2301 38.4899 20.9801 37.1799 21.5901 36.0299C22.8401 33.7599 23.5201 32.1499 23.5201 32.1499C23.5201 32.1499 22.2901 33.3899 20.6501 35.3999C19.8201 36.3999 18.8901 37.5899 17.9301 38.8899C17.4601 39.5399 16.9301 40.1999 16.4801 40.8899L15.5401 42.2399L14.0501 41.3599C13.2901 40.9099 12.5201 40.5099 11.7901 40.0999C10.3201 39.2999 8.9301 38.5799 7.7101 37.9999C5.3001 36.8099 3.6001 36.1699 3.6001 36.1699C3.6001 36.1699 4.9601 37.3799 7.1301 38.9699C8.2101 39.7699 9.49011 40.6699 10.8901 41.5899C11.6001 42.0499 12.3101 42.5899 13.0601 42.9999L14.4501 43.8599C14.1701 44.2999 13.8901 44.7299 13.6101 45.1499C13.1401 45.8599 12.7201 46.5799 12.2901 47.2699C11.4501 48.6399 10.6901 49.9499 10.0801 51.0899C8.83009 53.3699 8.1501 54.9799 8.1501 54.9799C8.1501 54.9799 9.3801 53.7399 11.0201 51.7299C11.8501 50.7299 12.7701 49.5399 13.7301 48.2399C14.2101 47.5799 14.7301 46.9199 15.1901 46.2399L16.1301 44.8999L17.6201 45.7699C18.3801 46.2299 19.1501 46.6299 19.8801 47.0399C21.3501 47.8399 22.7401 48.5599 23.9501 49.1399C26.3701 50.3299 28.0701 50.9599 28.0701 50.9599C28.0701 50.9599 26.7101 49.7399 24.5401 48.1599Z" fill="#303030"/>
<path d="M44.4601 44.3699C43.3801 43.5699 42.0901 42.6699 40.7001 41.7399C39.9901 41.2899 39.2802 40.7399 38.5302 40.3399L37.1402 39.4699L37.9801 38.1799C38.4501 37.4799 38.8701 36.7599 39.3001 36.0699C40.1401 34.6999 40.9001 33.3899 41.5101 32.2499C42.7601 29.9699 43.4401 28.3599 43.4401 28.3599C43.4401 28.3599 42.2001 29.5999 40.5701 31.6099C39.7401 32.6099 38.8101 33.7999 37.8501 35.0999C37.3801 35.7499 36.8502 36.4099 36.3902 37.0999L35.4601 38.4399L33.9601 37.5599C33.2101 37.1099 32.4401 36.7099 31.7101 36.2999C30.2401 35.4999 28.8501 34.7799 27.6301 34.1999C25.2201 33.0199 23.5201 32.3799 23.5201 32.3799C23.5201 32.3799 24.8701 33.5799 27.0501 35.1699C28.1301 35.9699 29.4102 36.8699 30.8102 37.7899C31.5102 38.2499 32.2301 38.7399 32.9801 39.1999L34.3701 40.0699C34.0901 40.4999 33.8002 40.9299 33.5302 41.3599C33.0602 42.0599 32.6401 42.7799 32.2101 43.4699C31.3601 44.8499 30.6102 46.1499 30.0002 47.2999C28.7502 49.5699 28.0602 51.1799 28.0602 51.1799C28.0602 51.1799 29.3001 49.9399 30.9401 47.9299C31.7601 46.9299 32.6901 45.7399 33.6501 44.4399C34.1201 43.7899 34.6502 43.1199 35.1102 42.4399L36.0401 41.0999L37.5401 41.9799C38.2901 42.4299 39.0601 42.8299 39.8001 43.2399C41.2601 44.0399 42.6601 44.7599 43.8701 45.3399C46.2901 46.5299 47.9901 47.1599 47.9901 47.1599C47.9901 47.1599 46.6301 45.9599 44.4601 44.3699Z" fill="#303030"/>
</g>
<path d="M15.23 44.2597C15.4356 45.0925 15.3026 45.9727 14.8602 46.7075C14.4178 47.4424 13.7021 47.9718 12.87 48.1797L4.24001 49.7397C3.38806 49.8327 2.53391 49.5853 1.86343 49.0516C1.19296 48.5178 0.760427 47.7408 0.660003 46.8897L0.0600121 43.5797C-0.146249 42.7498 -0.0160137 41.8719 0.422332 41.1376C0.860678 40.4033 1.57158 39.8721 2.40001 39.6598L11.03 38.0997C11.882 38.0068 12.7361 38.2541 13.4066 38.7879C14.0771 39.3217 14.5096 40.0987 14.61 40.9497L15.23 44.2597Z" fill="#303030"/>
<g style="mix-blend-mode:multiply" opacity="0.5">
<path d="M15.23 44.2597L14.63 40.9497C14.5826 40.7004 14.5123 40.4561 14.42 40.2197L14.83 42.4897C15.0356 43.3224 14.9026 44.2027 14.4602 44.9375C14.0178 45.6723 13.3021 46.2018 12.47 46.4097L3.83997 47.9697C3.12103 48.0609 2.39269 47.9006 1.77846 47.5161C1.16423 47.1315 0.701926 46.5463 0.469971 45.8597L0.659958 46.8597C0.760382 47.7108 1.19291 48.4878 1.86339 49.0215C2.53387 49.5553 3.38802 49.8026 4.23996 49.7097L12.87 48.1497C13.6956 47.9415 14.406 47.4166 14.8477 46.6887C15.2893 45.9607 15.4266 45.0882 15.23 44.2597Z" fill="#FE816F"/>
</g>
<path d="M14.1299 42.7497C14.2259 43.2888 14.16 43.8442 13.9405 44.3458C13.7211 44.8475 13.3578 45.2728 12.8968 45.5681C12.4357 45.8634 11.8974 46.0155 11.35 46.005C10.8025 45.9946 10.2704 45.8221 9.82096 45.5094C9.37148 45.1967 9.02474 44.7579 8.82456 44.2482C8.62438 43.7386 8.57974 43.181 8.69627 42.646C8.81279 42.111 9.08525 41.6226 9.47924 41.2423C9.87323 40.8621 10.3711 40.6072 10.9099 40.5097C11.2686 40.4435 11.6368 40.449 11.9934 40.526C12.3499 40.603 12.6876 40.7499 12.9871 40.9582C13.2865 41.1665 13.5416 41.432 13.7378 41.7396C13.934 42.0471 14.0672 42.3904 14.1299 42.7497Z" fill="#414141"/>
</g>
<defs>
<clipPath id="clip0_637_250">
<rect width="52.33" height="61.72" fill="white"/>
</clipPath>
</defs>
</svg>
