<svg width="49" height="48" viewBox="0 0 49 48" fill="none" xmlns="http://www.w3.org/2000/svg">
<g clip-path="url(#clip0_637_211)">
<path d="M37.2158 0.497559C37.4284 0.495029 37.6397 0.534319 37.8369 0.61377C38.0341 0.693227 38.2138 0.811268 38.3652 0.960449C38.5167 1.10964 38.6364 1.28793 38.7188 1.48389L38.7197 1.48486L48.1104 23.5854C48.2783 23.9806 48.2825 24.4264 48.1221 24.8247C47.9616 25.2231 47.649 25.5412 47.2539 25.7095L12.1445 40.6196L12.1426 40.6206C11.9473 40.7047 11.737 40.7489 11.5244 40.7515C11.3118 40.754 11.1005 40.7147 10.9033 40.6353C10.7062 40.5558 10.5264 40.4377 10.375 40.2886C10.2237 40.1394 10.1029 39.962 10.0205 39.7661V39.7642L0.629883 17.6646C0.461815 17.2693 0.457682 16.8227 0.618164 16.4243C0.77869 16.0261 1.09134 15.7078 1.48633 15.5396L1.48535 15.5386L36.5957 0.630371L36.5977 0.629395C36.7929 0.545255 37.0032 0.500093 37.2158 0.497559Z" fill="#FFE5E0" stroke="black"/>
<path d="M40.074 3.43352L1.06592 19.9995L3.34482 25.3657L42.3529 8.79966L40.074 3.43352Z" fill="#FE816F"/>
<path d="M42.2777 10.8661L26.8328 17.4253L27.5559 19.1281L43.0008 12.5689L42.2777 10.8661Z" fill="#FE816F"/>
<path d="M25.7111 17.9153L4.89697 26.7461L5.61952 28.4491L26.4337 19.6184L25.7111 17.9153Z" fill="#FE816F"/>
<path d="M46.8254 21.525L35.4387 26.3584L36.1616 28.0613L47.5482 23.228L46.8254 21.525Z" fill="#FE816F"/>
<path d="M35.1699 25.7202L46.5399 20.8902L46.0599 19.7402L34.6799 24.5802L35.1699 25.7202Z" fill="#FE816F"/>
<path d="M18.48 25.2999L43.84 14.5299L43.36 13.3799L18 24.1499L18.48 25.2999Z" fill="#FE816F"/>
<path d="M1.32998 35.06C2.26998 37.28 6.45997 37.63 10.69 35.83C14.92 34.03 17.58 30.83 16.64 28.57C15.7 26.31 11.51 26 7.27997 27.79C3.04997 29.58 0.389984 32.84 1.32998 35.06Z" fill="#FFBAAF"/>
<path d="M2.92005 34.3801C3.67005 36.1501 6.99004 36.3802 10.34 35.0002C13.69 33.6202 15.8001 31.0001 15.0501 29.2401C14.3001 27.4801 10.9901 27.2401 7.64006 28.6301C4.29006 30.0201 2.18005 32.6301 2.92005 34.3801Z" fill="#FE816F"/>
<path d="M4.75999 33.6001C5.27999 34.8301 7.59 35.0201 9.92 34.0301C12.25 33.0401 13.73 31.2501 13.21 30.0301C12.69 28.8101 10.38 28.6201 8.05 29.6101C5.72 30.6001 4.24999 32.3801 4.75999 33.6001Z" fill="#FFBAAF"/>
<path d="M10.13 33.4598L9.39999 33.7698L9.23999 33.3898C8.94611 33.483 8.63466 33.507 8.32999 33.4598C8.21343 33.444 8.10308 33.3978 8.01004 33.3259C7.917 33.2539 7.84457 33.1587 7.79999 33.0498C7.76035 32.9365 7.76035 32.8131 7.79999 32.6998C7.83063 32.5802 7.88505 32.468 7.95999 32.3698C8.03579 32.2489 8.12649 32.1381 8.22998 32.0398L8.56998 31.7398L8.22998 30.9398L7.90997 31.1298C7.82572 31.1803 7.74549 31.2371 7.66998 31.2998L7.23999 30.9898C7.35527 30.903 7.47546 30.8229 7.59998 30.7498C7.74423 30.6595 7.8946 30.5793 8.04999 30.5098L7.89999 30.1498L8.62997 29.8398L8.77997 30.2098C9.06646 30.115 9.37031 30.0843 9.66998 30.1198C9.77741 30.1317 9.87963 30.1723 9.96588 30.2374C10.0521 30.3025 10.1192 30.3898 10.16 30.4898C10.2037 30.6058 10.2037 30.7338 10.16 30.8498C10.1355 30.9698 10.0843 31.0826 10.01 31.1798C9.93484 31.2923 9.84765 31.3963 9.74997 31.4898C9.64394 31.5978 9.53032 31.6981 9.40997 31.7898L9.78998 32.6698C9.95998 32.5798 10.11 32.4998 10.23 32.4198C10.3321 32.3578 10.4291 32.2875 10.52 32.2098L10.96 32.5298C10.8405 32.6296 10.7135 32.7198 10.58 32.7998C10.3831 32.9153 10.1793 33.0189 9.96997 33.1098L10.13 33.4598ZM8.88998 31.4598C8.98636 31.3622 9.07652 31.2587 9.15997 31.1498C9.19267 31.114 9.2147 31.0697 9.22354 31.022C9.23238 30.9743 9.22768 30.925 9.20999 30.8798C9.19395 30.8434 9.16909 30.8115 9.13766 30.7871C9.10624 30.7627 9.06923 30.7464 9.02997 30.7398C8.88713 30.7159 8.74041 30.7369 8.60999 30.7998L8.88998 31.4598ZM9.06998 32.1398C8.95803 32.2247 8.86304 32.3299 8.78998 32.4498C8.76438 32.4921 8.75085 32.5405 8.75085 32.5898C8.75085 32.6392 8.76438 32.6876 8.78998 32.7298C8.80963 32.7752 8.83987 32.8152 8.87814 32.8465C8.91641 32.8779 8.96161 32.8996 9.00998 32.9098C9.14413 32.9469 9.28583 32.9469 9.41998 32.9098L9.06998 32.1398Z" fill="#FE816F"/>
<path d="M10.6901 35.8298C14.9201 34.0398 17.5801 30.8298 16.6401 28.5698L17.7701 31.2398C18.7201 33.4598 16.0501 36.7098 11.8201 38.4998C7.59007 40.2898 3.41008 39.9498 2.46008 37.7298L1.33008 35.0598C2.27008 37.2798 6.46006 37.6298 10.6901 35.8298Z" fill="#FE816F"/>
<path d="M11.55 37.8999C15.78 36.0999 18.4399 32.8499 17.4999 30.6299L18.64 33.2999C19.58 35.5199 16.9099 38.7799 12.6899 40.5699C8.46994 42.3599 4.26996 42.0099 3.32996 39.7899L2.18994 37.1199C3.13994 39.3199 7.32996 39.6599 11.55 37.8999Z" fill="#FFBAAF"/>
<path d="M12.4201 39.8999C16.6401 38.1099 19.3101 34.8999 18.3601 32.6299L19.5001 35.3099C20.4401 37.5299 17.7801 40.7799 13.5501 42.5699C9.32008 44.3599 5.13006 44.0199 4.19006 41.7999L3.06006 39.1299C4.00006 41.3499 8.19007 41.6899 12.4201 39.8999Z" fill="#FE816F"/>
<path d="M13.2799 41.9001C17.5099 40.1101 20.1699 36.9001 19.2799 34.6401L20.4099 37.3101C21.3499 39.5301 18.6899 42.7901 14.4099 44.5801C10.1299 46.3701 5.98993 46.0201 5.04993 43.8001L3.91992 41.1301C4.85992 43.3801 9.04991 43.7301 13.2799 41.9001Z" fill="#FFBAAF"/>
<path d="M14.1701 44.0398C18.4001 42.2498 21.0601 39.0398 20.1201 36.7798L21.2601 39.4498C22.2001 41.6698 19.2601 44.3698 15.0701 46.1598C10.8801 47.9498 6.89007 48.1598 5.95007 45.9398L4.81006 43.2698C5.76006 45.4898 9.95007 45.8398 14.1701 44.0398Z" fill="#FE816F"/>
<path d="M18.89 38.4399C19.83 40.6599 24.02 41.0099 28.25 39.2099C32.48 37.4099 35.14 34.2099 34.2 31.9499C33.26 29.6899 29.07 29.3799 24.84 31.1699C20.61 32.9599 17.95 36.2299 18.89 38.4399Z" fill="#FFBAAF"/>
<path d="M20.4799 37.76C21.2299 39.52 24.55 39.76 27.9 38.38C31.25 37 33.3499 34.38 32.6099 32.62C31.8699 30.86 28.5399 30.62 25.1899 32.01C21.8399 33.4 19.7599 36.01 20.4799 37.76Z" fill="#FE816F"/>
<path d="M22.32 36.98C22.84 38.21 25.15 38.4 27.49 37.41C29.83 36.42 31.29 34.63 30.77 33.41C30.25 32.19 27.94 32 25.61 32.99C23.28 33.98 21.76 35.76 22.32 36.98Z" fill="#FFBAAF"/>
<path d="M27.69 36.8402L26.9601 37.1502L26.8 36.7702C26.503 36.8649 26.188 36.8889 25.88 36.8402C25.7642 36.8258 25.6546 36.78 25.5629 36.7077C25.4712 36.6354 25.4011 36.5395 25.36 36.4302C25.3204 36.3169 25.3204 36.1935 25.36 36.0802C25.3907 35.9606 25.4451 35.8484 25.5201 35.7502C25.5994 35.6291 25.6934 35.5182 25.8 35.4202L26.13 35.1102L25.8 34.3202C25.6852 34.3747 25.5748 34.4383 25.47 34.5102C25.3858 34.5606 25.3056 34.6175 25.23 34.6802L24.79 34.3702L25.1501 34.1302C25.2978 34.04 25.4515 33.9598 25.61 33.8902L25.4601 33.5302L26.19 33.2202L26.34 33.5902C26.6243 33.5012 26.9236 33.4706 27.22 33.5002C27.3314 33.5116 27.4377 33.5529 27.5275 33.6198C27.6173 33.6867 27.6873 33.7767 27.73 33.8802C27.7697 33.9935 27.7697 34.1169 27.73 34.2302C27.6969 34.3471 27.6463 34.4584 27.58 34.5602C27.5049 34.6727 27.4177 34.7766 27.32 34.8702C27.214 34.9782 27.1004 35.0785 26.98 35.1702L27.35 36.0502C27.5069 35.9799 27.6575 35.8963 27.8 35.8002C27.9022 35.7381 27.9992 35.6679 28.09 35.5902L28.53 35.9102C28.4106 36.0099 28.2835 36.1002 28.1501 36.1802C27.952 36.2937 27.7484 36.3972 27.54 36.4902L27.69 36.8402ZM26.45 34.8402C26.5543 34.7502 26.6452 34.6458 26.72 34.5302C26.7527 34.4944 26.7748 34.4501 26.7836 34.4023C26.7924 34.3546 26.7877 34.3054 26.7701 34.2602C26.754 34.2238 26.7291 34.1919 26.6977 34.1675C26.6663 34.143 26.6293 34.1268 26.59 34.1202C26.4483 34.0911 26.301 34.1086 26.17 34.1702L26.45 34.8402ZM26.63 35.5202C26.5209 35.6042 26.4263 35.7056 26.35 35.8202C26.3177 35.8598 26.2964 35.9072 26.2883 35.9576C26.2802 36.008 26.2856 36.0597 26.3038 36.1074C26.3221 36.1551 26.3526 36.1971 26.3924 36.2292C26.4321 36.2613 26.4796 36.2824 26.53 36.2902C26.6643 36.3268 26.8058 36.3268 26.94 36.2902L26.63 35.5202Z" fill="#FE816F"/>
<path d="M28.2499 39.2102C32.4799 37.4202 35.1399 34.2102 34.1999 31.9502L35.3299 34.6202C36.2699 36.8402 33.6099 40.0902 29.3799 41.8902C25.1499 43.6902 20.9699 43.3302 20.0199 41.1102L18.8899 38.4402C19.8299 40.6602 24.0199 41.0102 28.2499 39.2102Z" fill="#FE816F"/>
</g>
<defs>
<clipPath id="clip0_637_211">
<rect width="48.74" height="47.56" fill="white"/>
</clipPath>
</defs>
</svg>
