<svg width="29" height="29" viewBox="0 0 29 29" fill="none" xmlns="http://www.w3.org/2000/svg">
<g clip-path="url(#clip0_637_12)">
<path d="M13.95 0.289779C5.94997 1.79978 0.249962 7.03979 0.0199623 15.4898C-0.230038 25.1398 8.80996 29.3798 17.41 27.7398C24.04 26.4798 27.87 20.1498 28.14 13.7398C28.5 5.37979 21.96 0.349801 14.14 0.249801C13.61 0.249801 12.72 1.02979 13.63 1.04979C20.55 1.13979 25.83 4.9898 26.74 11.9698C27.47 17.6598 24.65 23.8698 19.37 26.3298C15.76 27.9998 11.05 27.3298 7.50997 25.8398C3.69997 24.2698 1.90997 20.9698 1.50997 17.0498C0.579968 8.81979 5.87997 2.53979 13.84 1.04979C14.48 0.929789 14.92 0.0497805 14.01 0.259781L13.95 0.289779Z" fill="#FE816F"/>
<path d="M0.569966 15.9102C9.00997 15.8302 17.39 14.4702 25.83 14.6402C26.45 14.6402 27.21 13.7202 26.31 13.7002C17.74 13.5402 9.30997 14.8902 0.699971 14.9702C-0.0500288 14.9702 -0.350034 15.9202 0.569966 15.9102Z" fill="#FE816F"/>
<path d="M4.65994 5.2602C10.2699 6.7602 18.7599 9.3402 23.8799 5.2602C24.1499 5.0402 22.8799 5.18022 22.6699 5.37022C18.4799 8.76022 10.4099 6.05022 5.76994 4.81022C5.45994 4.73022 4.28994 5.21022 4.65994 5.31022V5.2602Z" fill="#FE816F"/>
<path d="M23.8999 22.5501C21.9599 19.8001 16.8999 20.1001 14.0199 20.2401C10.3999 20.4101 6.01989 21.1201 3.16989 23.5301C2.60989 23.9901 3.94989 23.85 4.16989 23.63C6.84989 21.37 10.8599 20.97 14.2299 20.82C16.7699 20.7 20.9499 20.6901 22.5999 23.0301C22.8099 23.3201 24.0999 22.8901 23.8599 22.5501H23.8999Z" fill="#FE816F"/>
<path d="M14.5101 0.420213C10.5101 8.29021 6.23007 20.2402 12.2201 28.1602C12.4901 28.5202 13.7801 28.0702 13.4701 27.6402C7.64007 19.9302 11.8601 8.11023 15.7601 0.440232C16.0501 -0.129768 14.7001 0.0402322 14.5101 0.440232V0.420213Z" fill="#FE816F"/>
<path d="M14.5099 0.699839C19.1399 7.44984 21.2999 20.3999 16.7899 27.6199C16.4399 28.1799 17.7899 28.0898 18.0499 27.6798C22.6899 20.2498 20.4999 7.07983 15.7499 0.15983C15.4699 -0.25017 14.1699 0.209839 14.5099 0.699839Z" fill="#FE816F"/>
</g>
<defs>
<clipPath id="clip0_637_12">
<rect width="28.16" height="28.29" fill="white"/>
</clipPath>
</defs>
</svg>
