<svg width="42" height="50" viewBox="0 0 42 50" fill="none" xmlns="http://www.w3.org/2000/svg">
<g clip-path="url(#clip0_222_34)">
<path d="M4.62 37.96H3.5L4.44 11.18C4.45887 9.76836 4.7729 8.37626 5.36189 7.09322C5.95089 5.81017 6.80182 4.66456 7.86 3.73001C12.62 -0.399988 20.57 0.120014 21.44 0.200014C22.24 0.0900137 28.96 -0.649993 33.78 3.74001C37.24 6.90001 38.78 11.9 38.44 18.6V36.06H37.31V18.48C37.66 12.11 36.22 7.42001 33.02 4.48001C28.4 0.270012 21.61 1.21 21.54 1.22H21.4C21.32 1.22 13.16 0.510012 8.59 4.48001C7.65469 5.31651 6.90464 6.33933 6.388 7.48284C5.87136 8.62634 5.59954 9.86525 5.59 11.12L4.62 37.96Z" fill="#303030"/>
<path d="M38.87 21.6H2.92C1.30733 21.6 0 22.9073 0 24.52V46.6C0 48.2127 1.30733 49.52 2.92 49.52H38.87C40.4827 49.52 41.79 48.2127 41.79 46.6V24.52C41.79 22.9073 40.4827 21.6 38.87 21.6Z" fill="#FE624C"/>
<path d="M23.7 33.96C23.14 28.69 18.04 29.25 18.08 33.96C18.083 34.5111 18.2463 35.0494 18.5499 35.5093C18.8536 35.9691 19.2844 36.3307 19.79 36.55L18.08 44.25L23.14 45.13L21.99 36.55C22.5103 36.3516 22.9551 35.9949 23.2619 35.5302C23.5687 35.0656 23.7219 34.5164 23.7 33.96Z" fill="white"/>
</g>
<defs>
<clipPath id="clip0_222_34">
<rect width="41.79" height="49.53" fill="white"/>
</clipPath>
</defs>
</svg>
