<svg width="11" height="12" viewBox="0 0 11 12" fill="none" xmlns="http://www.w3.org/2000/svg">
<path d="M5.41999 11.96H5.36999C5.33777 11.9556 5.30685 11.9444 5.27927 11.9272C5.25169 11.9099 5.22808 11.887 5.20999 11.86L3.46999 9.37L3.10999 9.66C2.97659 9.76735 2.8112 9.82717 2.63999 9.83C2.58371 9.83932 2.52627 9.83932 2.46999 9.83C2.28203 9.7728 2.11508 9.6615 1.98999 9.51L1.85999 9.35L1.20999 8.42C1.05187 8.2483 0.964096 8.02341 0.964096 7.79C0.964096 7.55658 1.05187 7.3317 1.20999 7.16L3.42999 5.49999H3.50999L3.61999 5.41C4.92534 4.2605 5.7382 2.6527 5.88999 0.92C5.89441 0.870309 5.91419 0.823227 5.94661 0.785303C5.97902 0.74738 6.02245 0.720498 6.07084 0.708399C6.11924 0.6963 6.17021 0.699582 6.21665 0.717791C6.2631 0.736 6.30271 0.768231 6.32999 0.81L7.77999 2.81C7.91798 2.72836 8.07092 2.67521 8.22979 2.65367C8.38867 2.63213 8.55024 2.64264 8.70498 2.68459C8.85972 2.72654 9.00449 2.79907 9.13073 2.8979C9.25697 2.99673 9.36213 3.11985 9.43999 3.26C9.55215 3.48371 9.59942 3.73437 9.57644 3.98357C9.55347 4.23277 9.46116 4.47056 9.30999 4.67L9.17999 4.81L10.41 6.53C10.4374 6.56759 10.4533 6.61233 10.4558 6.65878C10.4582 6.70524 10.4471 6.75141 10.4238 6.79167C10.4005 6.83193 10.366 6.86455 10.3245 6.88555C10.283 6.90656 10.2362 6.91506 10.19 6.91C8.67454 6.63186 7.10956 6.87506 5.74999 7.6L5.81999 7.82C5.91999 8.11 6.03999 8.34 6.09999 8.56C6.15463 8.73585 6.15463 8.92415 6.09999 9.1C6.03341 9.25019 5.93832 9.38603 5.81999 9.49999L5.73999 9.57C6.08029 9.96298 6.54719 10.2247 7.05999 10.31C7.10787 10.315 7.15314 10.3343 7.18992 10.3654C7.2267 10.3964 7.25329 10.4378 7.26623 10.4842C7.27917 10.5306 7.27786 10.5797 7.26249 10.6254C7.24711 10.671 7.21837 10.7109 7.17999 10.74L5.54999 11.95C5.50831 11.9648 5.46345 11.9682 5.41999 11.96ZM5.41999 11.38L6.41999 10.62C5.65291 10.2639 5.02652 9.66219 4.63999 8.91L4.44999 8.56L3.79999 9.07L5.41999 11.38ZM1.41999 10.03C1.3816 10.0349 1.3426 10.0291 1.30731 10.0132C1.27201 9.9973 1.2418 9.97197 1.21999 9.94L0.459992 8.94C0.421535 8.88828 0.405197 8.82341 0.414574 8.75965C0.423951 8.69588 0.458274 8.63846 0.509991 8.6C0.561708 8.56154 0.626584 8.54521 0.690346 8.55458C0.754108 8.56396 0.811535 8.59828 0.849991 8.65L1.59999 9.65C1.62207 9.67143 1.63962 9.69709 1.6516 9.72543C1.66358 9.75377 1.66976 9.78423 1.66976 9.815C1.66976 9.84577 1.66358 9.87622 1.6516 9.90457C1.63962 9.93291 1.62207 9.95856 1.59999 9.98C1.56361 10.011 1.51775 10.0286 1.46999 10.03H1.41999ZM2.57999 9.35C2.64577 9.34576 2.70863 9.32132 2.75999 9.28L4.75999 7.71L3.44999 6.03L1.44999 7.49C1.33999 7.63 1.32999 7.83 1.50999 8.08L2.20999 8.98C2.35999 9.19 2.46999 9.27 2.54999 9.28L2.57999 9.35ZM5.37999 9.16H5.43999C5.50556 9.0947 5.55667 9.01633 5.58999 8.92999C5.62077 8.8495 5.62077 8.76049 5.58999 8.67999C5.58999 8.49999 5.41999 8.27 5.30999 7.96V7.91L5.24999 7.97L4.89999 8.24999C5.04987 8.54493 5.22029 8.82897 5.40999 9.1L5.37999 9.16ZM5.20999 7.4L5.27999 7.34C6.56537 6.49225 8.11364 6.13714 9.63999 6.34H9.80999L6.33999 1.49999V1.76C6.07418 3.17991 5.37557 4.48282 4.33999 5.49L3.99999 5.77L5.20999 7.4ZM5.43999 5.16C5.37749 5.15045 5.32061 5.11846 5.27999 5.07C5.23712 5.02377 5.2133 4.96305 5.2133 4.9C5.2133 4.83695 5.23712 4.77623 5.27999 4.73C5.74439 4.34575 6.068 3.81812 6.19999 3.23C6.20705 3.19905 6.22018 3.16981 6.23862 3.14397C6.25706 3.11813 6.28044 3.0962 6.30742 3.07945C6.33439 3.06271 6.36441 3.05149 6.39575 3.04643C6.42709 3.04138 6.45912 3.04259 6.48999 3.05C6.55116 3.06653 6.60377 3.10567 6.63718 3.1595C6.6706 3.21334 6.68232 3.27785 6.66999 3.34C6.53116 4.04619 6.16186 4.68633 5.61999 5.16C5.56163 5.17981 5.49836 5.17981 5.43999 5.16ZM8.92999 4.33L9.04999 4.19C9.10921 4.06852 9.13999 3.93514 9.13999 3.8C9.13999 3.66485 9.10921 3.53148 9.04999 3.41C8.97741 3.2656 8.8521 3.15461 8.69999 3.1C8.53421 3.07874 8.36574 3.09936 8.20999 3.16H8.07999L8.92999 4.33Z" fill="white"/>
</svg>
