<svg width="139" height="45" viewBox="0 0 139 45" fill="none" xmlns="http://www.w3.org/2000/svg">
<path d="M128 44.5L111 34.5L126.5 29L128 44.5Z" fill="url(#paint0_linear_10267_1100)"/>
<path d="M128.91 37C128.91 37 17.3629 37 10.0902 37C2.81757 37 -9.53674e-07 35 -9.53674e-07 31.0745C-9.53674e-07 31.0745 -9.53674e-07 11.851 -9.53674e-07 5.92551C-9.53674e-07 0 4.22635 0 10.0902 0C15.9541 0 128.91 0 128.91 0C137.122 0 139 2 139 5.92551C139 9.85102 139 31.0745 139 31.0745C139 35 137.122 37 128.91 37Z" fill="url(#paint1_linear_10267_1100)"/>
<path d="M14.104 24V13.776H10.072V11.4H21.052V13.776H17.02V24H14.104ZM25.5069 24V18.852L26.1729 20.616L20.6289 11.4H23.7249L27.9729 18.474H26.1909L30.4569 11.4H33.3189L27.7749 20.616L28.4229 18.852V24H25.5069ZM34.4335 24V11.4H39.8875C41.0155 11.4 41.9875 11.586 42.8035 11.958C43.6195 12.318 44.2495 12.84 44.6935 13.524C45.1375 14.208 45.3595 15.024 45.3595 15.972C45.3595 16.908 45.1375 17.718 44.6935 18.402C44.2495 19.086 43.6195 19.614 42.8035 19.986C41.9875 20.346 41.0155 20.526 39.8875 20.526H36.0535L37.3495 19.212V24H34.4335ZM37.3495 19.536L36.0535 18.15H39.7255C40.6255 18.15 41.2975 17.958 41.7415 17.574C42.1855 17.19 42.4075 16.656 42.4075 15.972C42.4075 15.276 42.1855 14.736 41.7415 14.352C41.2975 13.968 40.6255 13.776 39.7255 13.776H36.0535L37.3495 12.39V19.536ZM50.1233 16.476H56.1893V18.744H50.1233V16.476ZM50.3393 21.66H57.1973V24H47.4413V11.4H56.9633V13.74H50.3393V21.66ZM63.6574 24.216C62.6494 24.216 61.6834 24.084 60.7594 23.82C59.8354 23.544 59.0914 23.19 58.5274 22.758L59.5174 20.562C60.0574 20.946 60.6934 21.264 61.4254 21.516C62.1694 21.756 62.9194 21.876 63.6754 21.876C64.2514 21.876 64.7134 21.822 65.0614 21.714C65.4214 21.594 65.6854 21.432 65.8534 21.228C66.0214 21.024 66.1054 20.79 66.1054 20.526C66.1054 20.19 65.9734 19.926 65.7094 19.734C65.4454 19.53 65.0974 19.368 64.6654 19.248C64.2334 19.116 63.7534 18.996 63.2254 18.888C62.7094 18.768 62.1874 18.624 61.6594 18.456C61.1434 18.288 60.6694 18.072 60.2374 17.808C59.8054 17.544 59.4514 17.196 59.1754 16.764C58.9114 16.332 58.7794 15.78 58.7794 15.108C58.7794 14.388 58.9714 13.734 59.3554 13.146C59.7514 12.546 60.3394 12.072 61.1194 11.724C61.9114 11.364 62.9014 11.184 64.0894 11.184C64.8814 11.184 65.6614 11.28 66.4294 11.472C67.1974 11.652 67.8754 11.928 68.4634 12.3L67.5634 14.514C66.9754 14.178 66.3874 13.932 65.7994 13.776C65.2114 13.608 64.6354 13.524 64.0714 13.524C63.5074 13.524 63.0454 13.59 62.6854 13.722C62.3254 13.854 62.0674 14.028 61.9114 14.244C61.7554 14.448 61.6774 14.688 61.6774 14.964C61.6774 15.288 61.8094 15.552 62.0734 15.756C62.3374 15.948 62.6854 16.104 63.1174 16.224C63.5494 16.344 64.0234 16.464 64.5394 16.584C65.0674 16.704 65.5894 16.842 66.1054 16.998C66.6334 17.154 67.1134 17.364 67.5454 17.628C67.9774 17.892 68.3254 18.24 68.5894 18.672C68.8654 19.104 69.0034 19.65 69.0034 20.31C69.0034 21.018 68.8054 21.666 68.4094 22.254C68.0134 22.842 67.4194 23.316 66.6274 23.676C65.8474 24.036 64.8574 24.216 63.6574 24.216ZM77.026 24.216C76.054 24.216 75.148 24.06 74.308 23.748C73.48 23.424 72.76 22.968 72.148 22.38C71.536 21.792 71.056 21.102 70.708 20.31C70.372 19.518 70.204 18.648 70.204 17.7C70.204 16.752 70.372 15.882 70.708 15.09C71.056 14.298 71.536 13.608 72.148 13.02C72.772 12.432 73.498 11.982 74.326 11.67C75.154 11.346 76.06 11.184 77.044 11.184C78.136 11.184 79.12 11.376 79.996 11.76C80.884 12.132 81.628 12.684 82.228 13.416L80.356 15.144C79.924 14.652 79.444 14.286 78.916 14.046C78.388 13.794 77.812 13.668 77.188 13.668C76.6 13.668 76.06 13.764 75.568 13.956C75.076 14.148 74.65 14.424 74.29 14.784C73.93 15.144 73.648 15.57 73.444 16.062C73.252 16.554 73.156 17.1 73.156 17.7C73.156 18.3 73.252 18.846 73.444 19.338C73.648 19.83 73.93 20.256 74.29 20.616C74.65 20.976 75.076 21.252 75.568 21.444C76.06 21.636 76.6 21.732 77.188 21.732C77.812 21.732 78.388 21.612 78.916 21.372C79.444 21.12 79.924 20.742 80.356 20.238L82.228 21.966C81.628 22.698 80.884 23.256 79.996 23.64C79.12 24.024 78.13 24.216 77.026 24.216ZM84.1971 24V11.4H89.6511C90.7791 11.4 91.7511 11.586 92.5671 11.958C93.3831 12.318 94.0131 12.84 94.4571 13.524C94.9011 14.208 95.1231 15.024 95.1231 15.972C95.1231 16.908 94.9011 17.718 94.4571 18.402C94.0131 19.074 93.3831 19.59 92.5671 19.95C91.7511 20.31 90.7791 20.49 89.6511 20.49H85.8171L87.1131 19.212V24H84.1971ZM92.2071 24L89.0571 19.428H92.1711L95.3571 24H92.2071ZM87.1131 19.536L85.8171 18.168H89.4891C90.3891 18.168 91.0611 17.976 91.5051 17.592C91.9491 17.196 92.1711 16.656 92.1711 15.972C92.1711 15.276 91.9491 14.736 91.5051 14.352C91.0611 13.968 90.3891 13.776 89.4891 13.776H85.8171L87.1131 12.39V19.536ZM97.4335 24V11.4H100.349V24H97.4335ZM103.34 24V11.4H108.794C109.922 11.4 110.894 11.586 111.71 11.958C112.526 12.318 113.156 12.84 113.6 13.524C114.044 14.208 114.266 15.024 114.266 15.972C114.266 16.908 114.044 17.718 113.6 18.402C113.156 19.086 112.526 19.614 111.71 19.986C110.894 20.346 109.922 20.526 108.794 20.526H104.96L106.256 19.212V24H103.34ZM106.256 19.536L104.96 18.15H108.632C109.532 18.15 110.204 17.958 110.648 17.574C111.092 17.19 111.314 16.656 111.314 15.972C111.314 15.276 111.092 14.736 110.648 14.352C110.204 13.968 109.532 13.776 108.632 13.776H104.96L106.256 12.39V19.536ZM118.624 24V13.776H114.592V11.4H125.572V13.776H121.54V24H118.624Z" fill="white"/>
<defs>
<linearGradient id="paint0_linear_10267_1100" x1="101.525" y1="51.8668" x2="134.666" y2="29.6002" gradientUnits="userSpaceOnUse">
<stop stop-color="#F54200"/>
<stop offset="0.0001" stop-color="#F54200"/>
<stop offset="1" stop-color="#FFAE00"/>
</linearGradient>
<linearGradient id="paint1_linear_10267_1100" x1="9.73" y1="22" x2="36.7527" y2="-29.5708" gradientUnits="userSpaceOnUse">
<stop stop-color="#F54200"/>
<stop offset="0.0001" stop-color="#F54200"/>
<stop offset="1" stop-color="#FFAE00"/>
</linearGradient>
</defs>
</svg>
