<svg width="79" height="47" viewBox="0 0 79 47" fill="none" xmlns="http://www.w3.org/2000/svg">
<g filter="url(#filter0_i_10265_1096)">
<path d="M72.7733 0L5.9189 0.132308C4.29781 0.178355 2.76386 0.789661 1.65446 1.83177C0.54507 2.87388 -0.0489031 4.26144 0.00315857 5.68926L0.224907 31.4327C0.201646 32.8665 0.819443 34.2509 1.94496 35.287C3.07048 36.3231 4.61345 36.9279 6.2408 36.9708L54.6755 36.8448L70.055 45.1613L69.3039 36.8195H73.0809C73.8842 36.7968 74.6745 36.6347 75.4067 36.3428C76.1388 36.0508 76.7985 35.6345 77.3479 35.1179C77.8973 34.6012 78.3257 33.9942 78.6086 33.3316C78.8915 32.669 79.0234 31.9638 78.9966 31.2563L78.7749 5.51915C78.7944 4.09022 78.1766 2.71158 77.0544 1.67954C75.9321 0.647499 74.395 0.0444507 72.7733 0Z" fill="url(#paint0_linear_10265_1096)"/>
</g>
<path d="M10.4 25V11H16.8C18.08 11 19.18 11.2067 20.1 11.62C21.0333 12.0333 21.7533 12.6333 22.26 13.42C22.7667 14.1933 23.02 15.1133 23.02 16.18C23.02 17.2333 22.7667 18.1467 22.26 18.92C21.7533 19.68 21.0333 20.2667 20.1 20.68C19.18 21.08 18.08 21.28 16.8 21.28H12.6L14.36 19.62V25H10.4ZM19.06 25L15.58 19.9H19.8L23.3 25H19.06ZM14.36 20.04L12.6 18.22H16.56C17.3867 18.22 18 18.04 18.4 17.68C18.8133 17.32 19.02 16.82 19.02 16.18C19.02 15.5267 18.8133 15.02 18.4 14.66C18 14.3 17.3867 14.12 16.56 14.12H12.6L14.36 12.3V20.04ZM31.6647 25.28C29.598 25.28 27.9847 24.7133 26.8247 23.58C25.6647 22.4467 25.0847 20.84 25.0847 18.76V11H29.0447V18.64C29.0447 19.84 29.278 20.7 29.7447 21.22C30.2247 21.74 30.878 22 31.7047 22C32.5314 22 33.178 21.74 33.6447 21.22C34.1114 20.7 34.3447 19.84 34.3447 18.64V11H38.2447V18.76C38.2447 20.84 37.6647 22.4467 36.5047 23.58C35.3447 24.7133 33.7314 25.28 31.6647 25.28ZM40.9273 25V11H48.0873C49.9273 11 51.3007 11.34 52.2073 12.02C53.114 12.6867 53.5673 13.5667 53.5673 14.66C53.5673 15.38 53.374 16.0133 52.9873 16.56C52.614 17.0933 52.0807 17.52 51.3873 17.84C50.7073 18.1467 49.894 18.3 48.9473 18.3L49.3473 17.34C50.334 17.34 51.194 17.4933 51.9273 17.8C52.6607 18.0933 53.2273 18.5267 53.6273 19.1C54.0407 19.66 54.2473 20.3467 54.2473 21.16C54.2473 22.3733 53.754 23.32 52.7673 24C51.794 24.6667 50.3673 25 48.4873 25H40.9273ZM44.8473 22.14H48.1673C48.8473 22.14 49.3607 22.0267 49.7073 21.8C50.0673 21.56 50.2473 21.2 50.2473 20.72C50.2473 20.24 50.0673 19.8867 49.7073 19.66C49.3607 19.42 48.8473 19.3 48.1673 19.3H44.5673V16.56H47.5673C48.234 16.56 48.734 16.4467 49.0673 16.22C49.4007 15.9933 49.5673 15.6533 49.5673 15.2C49.5673 14.7467 49.4007 14.4133 49.0673 14.2C48.734 13.9733 48.234 13.86 47.5673 13.86H44.8473V22.14ZM59.5455 25V19.08L60.4655 21.46L54.2055 11H58.3855L62.9055 18.58H60.4855L65.0255 11H68.8655L62.6255 21.46L63.5055 19.08V25H59.5455Z" fill="white"/>
<defs>
<filter id="filter0_i_10265_1096" x="0" y="0" width="79" height="45.1613" filterUnits="userSpaceOnUse" color-interpolation-filters="sRGB">
<feFlood flood-opacity="0" result="BackgroundImageFix"/>
<feBlend mode="normal" in="SourceGraphic" in2="BackgroundImageFix" result="shape"/>
<feColorMatrix in="SourceAlpha" type="matrix" values="0 0 0 0 0 0 0 0 0 0 0 0 0 0 0 0 0 0 127 0" result="hardAlpha"/>
<feOffset/>
<feGaussianBlur stdDeviation="2"/>
<feComposite in2="hardAlpha" operator="arithmetic" k2="-1" k3="1"/>
<feColorMatrix type="matrix" values="0 0 0 0 0 0 0 0 0 0 0 0 0 0 0 0 0 0 0.12 0"/>
<feBlend mode="normal" in2="shape" result="effect1_innerShadow_10265_1096"/>
</filter>
<linearGradient id="paint0_linear_10265_1096" x1="12.64" y1="35.6774" x2="36.5567" y2="-9.41841" gradientUnits="userSpaceOnUse">
<stop stop-color="#F54200"/>
<stop offset="1" stop-color="#FFAE00"/>
</linearGradient>
</defs>
</svg>
