<svg width="57" height="61" viewBox="0 0 57 61" fill="none" xmlns="http://www.w3.org/2000/svg">
<path d="M20.1957 1.07856C25.0321 0.547467 27.7437 0.692473 32.4947 1.73908C36.7164 2.66908 39.4146 2.68249 43.3759 4.49997C48.2399 6.73168 51.6185 8.09002 54.2223 12.8412C55.6363 15.4213 56.4139 17.1202 56.3851 20.1647C56.3608 22.7337 55.9505 24.0602 55 26.5C54.2035 28.5445 53.4087 29.8236 52.171 31.6454C50.6424 33.8955 49.41 34.8811 47.4289 36.7301C44.1883 39.7546 41.3427 39.8099 38.3437 43.4467C36.5142 45.6653 35.3314 47.4916 33.7932 50.5012C32.255 53.5107 33.0722 54.354 30.8614 56.7187C28.6647 59.0683 26.0543 59.8654 23.2283 60.228C21.536 60.4452 20.4669 59.9814 18.8046 59.7639C17.1262 59.5443 16.1843 59.2636 14.691 58.5151C12.6298 57.482 11.7523 56.4032 10.1826 54.7065C8.70069 53.1046 7.96217 52.0907 6.86902 50.1757C5.94014 48.5486 5.59526 47.5273 4.88318 45.7772C3.80498 43.1271 3.27183 41.5984 2.50164 38.8181C1.74186 36.0754 1.41645 34.4961 0.960945 31.6624C0.45203 28.4965 0.130836 26.702 0.129293 23.4567C0.128212 21.1809 0.188176 19.8876 0.533563 17.6143C0.812364 15.7793 0.923599 14.7187 1.55657 12.9541C2.14428 11.3157 2.55565 10.3886 3.55187 8.95055C5.64633 5.92729 7.7044 4.81477 10.9468 3.24199C14.3396 1.59622 16.542 1.47978 20.1957 1.07856Z" fill="#35B9FD" fill-opacity="0.4"/>
</svg>
