<svg width="53" height="62" viewBox="0 0 53 62" fill="none" xmlns="http://www.w3.org/2000/svg">
<path d="M12.6819 1.13924C10.4152 2.07257 7.48188 4.47257 6.28188 6.33924C0.815217 14.7392 -1.31812 33.1392 0.815216 53.6726L1.74855 61.8059L11.2152 58.3392C35.8819 49.5392 51.7486 39.4059 52.1486 32.2059C52.5486 23.9392 51.0819 21.1392 44.5486 18.4726C40.5486 16.7392 37.3486 17.1392 30.2819 19.9392C28.2819 20.7392 27.8819 20.3392 28.0152 17.8059C28.6819 10.7392 27.8819 7.27257 25.0819 4.07257C21.0819 -0.194095 17.6152 -0.994095 12.6819 1.13924ZM23.6152 6.73924C25.7486 10.0726 25.6152 22.2059 23.3486 27.9392C22.4152 30.2059 22.8152 30.0726 26.1486 27.1392C34.4152 19.5392 42.0152 18.4726 47.4819 23.9392C51.8819 28.3392 50.9486 31.6726 43.3486 38.7392C39.3486 42.4726 33.3486 45.9392 23.7486 49.8059C16.1486 52.8726 8.94855 55.9392 7.61522 56.7392C6.14855 57.5392 4.81522 57.8059 4.28188 57.4059C3.88188 57.0059 3.61522 49.0059 3.48188 39.6726C3.34855 19.1392 5.08188 11.5392 11.4819 6.07257C16.5486 1.53924 20.2819 1.80591 23.6152 6.73924Z" fill="white"/>
</svg>
